   <svg
      width="225"
      height="225"
      viewBox="0 0 225 225"
      fill="none"
      xmlns="http://www.w3.org/2000/svg"
    >
      <g clip-path="url(#clip0_2012_33)">
        <path
          d="M0 112.53V0H6H12V18.393C12 33.82 11.758 36.879 10.5 37.362C9.4 37.784 9 39.518 9 43.862C9 48.318 8.612 49.935 9.824 53.676C10.149 50.843 13.128 47 15 47C22.187 45.379 22.187 38.966 23.75 34.75C24.667 34.933 25 32.867 25 27C25 20.556 25.292 19 26.5 19C27.5 17 30.75 10.5 31.017 11.75C31.038 10.226 35.355 6 36.891 6C37.174 5 40.88 1.75 41 1.5C41 0.3 42.5 0 48.5 0H56C54.383 10.201 42.617 22.552 39 25.29C37.307 25.733 37 26.653 37 31.299C37 35.254 36.581 36.947 32.5 41C31.394 41 31 42.155 31 45.393C31 48.375 30.518 49.971 26.5 56C25.408 56 25 57.127 25 60.14C25 62.851 24.425 64.7 23.332 65.499C22.136 66.373 21.641 68.317 21.582 72.36C21.503 77.804 21.592 78 24.128 78C25.573 78 27.315 77.325 31 76.5C31 77.633 32.222 78 36 78C39.778 78 41 77.633 41 76.5C41.039 71.824 48.373 80.324 50 78.982C50 80.717 43.598 86.482 40.51 87.528C38.808 88.105 37.359 89.395 34 95.05C34 96.309 30.271 100 24.367 100.542C23.063 97.73 23.491 97 26.443 97C28.304 97 28.507 96.524 28.168 92.967C26.536 84.738 23.968 96.535 22 94C19.358 94 19 94.345 19 96.893C19 98.488 19.646 100.034 20.44 100.339C21.307 100.672 22.003 102.603 22.19 105.195L22.5 109.498L27.925 109.738L33.35 109.978L41.675 101.348C47.316 95.5 50 91.957 47 86.5C47 84.558 48.46 84.6 51.561 86.632C53.807 88.103 54.221 88.112 55.776 86.723C56.724 85.876 58.625 85.029 60 84.841C61.805 84.595 62.533 83.856 62.617 82.183C62.824 78.07 64.561 77.618 66.768 81.103C68.472 83.794 68.59 84.552 67.477 85.665C66.743 86.399 64.787 87 63.13 87C59.176 87 58.149 88.849 60.934 90.95C61.568 98.568 72.309 102.802 68.46 105.75C68.835 108.067 67.206 110 66 112C68.741 112 69 112.292 69 115.378C69 118.395 66.737 121.834 65.096 121.31C62.469 122.255 64.625 126.68 65.187 128.242C65.413 130.577 66.06 131.572 67.5 131.8C71.98 132.51 72.301 132.976 69.71 135.014C68.321 136.106 66.355 137.008 65.342 137.017C62.911 137.04 59 141.243 59 143.832C59 147.306 61.104 147.441 63.693 144.133C65.312 142.064 67.022 141 68.727 141C71.11 141 71.191 141.135 69.761 142.75C68.909 143.712 68.277 145.625 68.356 147C68.482 149.182 69.02 149.539 72.586 149.8C75.349 150.002 77.09 149.598 77.959 148.55C80.06 146.019 81 146.758 81 150.941C81 153.109 81.48 155.178 82.067 155.541C83.582 156.477 83.699 156.159 84.208 149.75C84.601 144.801 84.425 144 82.944 144C81.769 144 81.014 142.89 80.566 140.5C80.205 138.575 79.531 137 79.068 137C78.605 137 77.93 135.015 77.566 132.589C77.202 130.163 76.307 127.948 75.578 127.668C74.849 127.388 73.95 125.549 73.581 123.58C73.212 121.611 72.539 120 72.087 120C71.635 120 71.491 114.861 71.768 108.58C71.768 108.58 72.272 97.159 69.191 93.96C70.784 93.588 71.598 92.58 71.816 90.71C71.996 89.17 72.752 88 73.566 88C74.593 88 75 86.755 75 83.607C75 80.625 75.482 79.029 81.362 76.5C81.857 77.791 87.001 78.025 118.219 78.175C138.174 78.271 152.475 78.506 150 78.698C147.525 78.89 144.579 79.514 143.453 80.084C142.177 80.73 133.799 81.003 121.213 80.81C104.876 80.559 100.92 80.761 100.498 81.863C100.255 80.456 88.242 86.196 87.891 87C82.287 87 78.432 96.139 83.5 97.411C84.921 100.688 85.06 111.295 86.788 110C87.221 110 87.449 112.727 87.295 116.06L87.016 122.12L90.758 121.81C94.182 121.526 94.475 121.266 94.212 118.75L93.924 116H100.962C108.83 116 112 117.867 112 122.5C119.692 134.788 130.944 124.172 144.614 130.545C148.893 129.742 151.286 131.681 147.482 141.029C146.638 142.394 151.036 146.961 153.215 146.983C155.044 147.001 157.587 143.321 157.169 141.261C156.87 139.783 158.851 135.799 166.226 132.823C167.02 130.442 168.766 133.085 168.816 136.743C168.858 139.753 168.392 140.739 166.506 141.629C158.218 139.479 163.613 147.141 165.815 147.286C165.988 146.068 168.101 142.986 170.51 140.435C173.705 137.052 174.974 134.831 175.196 132.226C179.077 127.611 187.558 127.611 186.82 124.754C186.554 122.878 185.786 122.449 182.25 122.193C177.757 121.868 177.043 121.039 179.5 119C183.67 109.581 183.67 109.581 181 110.952C181 113.216 179.241 113.959 175.556 113.255C168.327 115.671 154.531 123.089 149.893 125C147.345 125 147 124.642 147 122C147 119.333 147.333 119 154.5 115.638C155.453 115.272 156 113.735 156 111.422C156 107.144 159.308 103.043 162.781 103.017C169.846 100.327 177.152 94.377 178 91.648C178 90.87 179.908 88.509 182.24 86.402C187.001 82.101 191 76.648 191 74.456C191 72.804 194.486 69 196 69C198.08 69 197.502 88.988 195.374 90.646C194.11 91.63 194.243 92.159 196.316 94.396C197.643 95.828 199.691 97 200.865 97C200.07 91.678 202.266 90.646 206.017 91.25C206.032 88.837 209.618 84 211.391 84C211.726 84 212.869 83.131 213.931 82.069C215.588 80.412 215.859 78.702 215.84 70.003C215.823 62.221 215.491 59.742 214.409 59.327C212.328 58.528 212.413 47 214.5 47C215.753 47 216 44.944 216 34.5C216 24.056 215.753 22 211 15.71C208.413 15.033 208.449 12.592 211.083 10.138C212.345 8.962 213.035 7.273 207.384 9C206.229 9 206.008 8.059 206.388 4.75C206.656 2.412 206.904 0.387 206.938 0.25C206.972 0.112 211.05 0 216 0H225V112.5V225L220.25 224.985C214 224.328 218.625 222.194 216 220.216C216 217.735 215.646 217.436 212.75 217.466C209.627 217.499 209.509 217.647 209.72 221.25C209.902 224.344 209.608 225 208.042 225C197.079 221.787 197.079 219.009 194.839 216C192.31 216 186.72 221.827 187.442 223.71C187.82 224.696 186.116 224.997 180.219 224.985C175.974 224.977 172.05 224.639 171.5 224.235C170.08 223.192 169.77 220.987 170.855 219.645C171.885 218.37 172.105 212.981 171.125 213.033C169.298 213.13 165.85 217.168 166.391 218.577C166.725 219.447 166.725 221.248 166.391 222.579C165.887 224.588 165.165 224.998 162.142 224.989C155.886 224.97 151 223.821 148 222.375C148 223.856 143.806 225 138.375 225H135L135.009 213.25C135.017 203.048 135.321 200.876 137.316 196.757C138.893 193.501 139.937 192.337 140.644 193.044C141.78 194.18 145.197 193.104 148.306 190.633C149.721 189.508 150.046 188.059 149.806 183.928C149.46 177.964 147.316 175.999 146.818 181.189C146.445 185.07 144.657 185.615 144.148 182.002C143.739 179.102 137 171.984 137 174.452C135.785 179.629 135.568 171.14 134.996 170.495C133.391 168.561 129.105 168.564 128.362 170.5C124.604 167.36 126.867 154.878 128 154.393C128 153.409 126.68 153 123.5 153C120.167 153 119 152.611 119 151.5C119 150.395 120.154 150 123.378 150C126.049 150 128.24 150.585 129 151.5C130.582 153.406 133.618 153.44 134.339 151.56C134.672 150.693 136.603 149.997 139.196 149.81L143.5 149.5L143.8 144.312C144.06 139.811 143.806 138.966 141.879 137.935C140.051 136.957 139.448 137.034 138.469 138.373C136.95 140.451 136.05 140.424 134.36 138.25C118.948 128.29 111.791 128.29 106 125.606C106 124.417 105.042 122.625 103.871 121.622C100.794 118.988 100.031 120.855 100.033 131C100.035 138.646 100.273 139.726 102.408 141.75C103.714 142.988 105.619 144.004 106.641 144.008C110.72 144.025 111.242 150.969 107.339 153.3C105.541 154.374 105.638 156 107.5 156C108.613 156 109 157.17 109 160.531C109 163.636 109.472 165.244 110.5 165.638C111.417 165.99 112 167.506 112 169.536C112 171.363 112.675 173.532 113.5 174.357C114.329 175.186 115 177.631 115 179.822C115 182.301 115.525 183.988 116.402 184.324C119.415 181.247 121.384 180.026 122 180.118C122 178.511 125.239 175 126.722 175C127.468 181.605 133.838 181.605 136.475 181.96C137.315 183.319 133.802 186.582 130.645 187.374C127.734 188.105 127.16 189.74 129.5 190.638C130.412 190.988 131 192.502 131 194.5C131 196.498 130.412 198.012 129.5 198.362C128.273 198.833 128 201.308 128 211.969V225H119.129H110.258L109.604 220.075C109.245 217.366 108.422 214.974 107.774 214.758C105.475 213.992 103 217.343 103 221.222V225H87.571C75.19 225 71.847 224.704 70.643 223.5C69.047 221.904 66.516 221.408 67.418 222.867C68.071 223.923 60.78 225 52.975 225C45.471 225 44 223.039 44 213.035C44 207.448 43.691 206 42.5 206C41.675 206 41 206.675 41 207.5C41 208.606 39.753 209.031 36.25 209.118C33.638 209.183 30.971 209.172 30.845 216.056C30.549 218.15 29.892 218.543 26.25 218.807C23.294 219.021 22 219.567 25.5 223C25.5 224.24 23.292 224.549 12.75 224.78L0 225.06V112.53ZM70.5 217C69.962 216.13 71.99 215.525 74.25 215.882C74.662 215.947 75 213.798 75 211.107C75 207.68 74.551 206.041 73.5 205.638C72.675 205.321 72 204.24 72 203.234C72 202.228 70.669 200.302 69.042 198.953C67.415 197.604 66.065 196.186 66.042 195.802C65.967 194.573 61.312 190 60.135 190C59.511 190 59.112 189.663 59.25 189.25C59.575 188.275 55.3 184 58 178.839C58 177.333 61.442 177.999 64 180C67.288 182.572 68 182.493 68 179.559C68 176.538 69.359 175.599 71.709 176.998C72.694 177.584 75.525 178.632 78 179.326C80.475 180.02 82.556 181.131 82.625 181.794C83.271 192.967 85.806 176.427 84.752 175C83.947 175 80.561 167.97 75.437 164.899C75.052 164.275 74.683 161.792 74.618 159.381C74.53 156.127 74.886 154.981 72 155.487C72 157.274 70.943 158.642 68.245 160.345C66.18 161.649 63.913 163.792 63.208 165.108C62.503 166.424 60.166 168.462 58.016 169.638C54.413 171.608 53.995 171.647 50.079 170.143C50.024 173.402 50.447 174.958 51.5 175.362C53.164 176.001 53.593 181 51.983 181C51.424 181 49.026 178.975 46.655 176.5C41.806 171.439 38.979 170.858 36.632 174.44C35.103 176.774 35.163 177.009 38.017 179.863C39.658 181.504 41 183.331 41 183.923C41 184.515 41.338 184.898 41.75 184.773C42.708 184.483 62 203.814 62 205.064C62 205.579 62.619 206 63.375 206C64.241 206 65.243 208.221 66.081 212C67.123 216.695 67.815 218 69.265 218C70.284 218 70.84 217.55 70.5 217ZM215.554 214.913C216.585 213.246 214.267 211.333 212.887 212.713C211.733 213.867 212.455 216 214 216C214.485 216 215.184 215.511 215.554 214.913ZM170.104 209.65C171.422 208.358 174.618 204.983 177.207 202.15C179.796 199.317 182.204 197 182.56 197C183.505 197 196.992 183.36 197.042 182.353C197.065 181.884 198.394 180.415 200.7 174.357C199.49 173.08 197.67 172.027 196.655 172.017C195.588 172.007 187.913 178.908 178.465 188.371C161.561 205.303 161.796 204.949 163.558 210.75C164.167 212.756 167.509 212.194 170.104 209.65ZM218.376 209.462C218.76 208.46 218.187 207.629 216.733 207.079C214.162 206.107 213 206.542 213 208.476C213 210.991 217.474 211.812 218.376 209.462ZM50.29 202C50.002 200.9 49.144 200 48.383 200C47.597 199 44.211 195.75 44 199.934C44 202.367 44.47 202.939 46.75 203.284C48.263 203.513 49.795 203.768 50.156 203.85C50.517 203.932 50.578 203.1 50.29 202ZM104.218 196.75C105.098 196.062 106.113 193.648 106.474 191.384C107.049 187.775 106.876 187.201 105.065 186.727C103.468 186.309 103 185.383 103 182.643C103 180.404 102.399 178.763 101.367 178.185C100.215 177.54 99.869 176.347 100.193 174.136C99.82 171.34 95.324 166.561 95.5 165.362C91.684 163.898 96.049 156 100.674 156C102.075 156 103 155.403 103 154.5C103 151.865 98.154 152.774 95 156C91.448 159.633 91 159.696 91 156.559C91 153.65 89.133 152.181 87.904 154.122C86.495 156.346 86.853 163.634 88.436 164.947C89.226 165.602 90.161 167.457 90.515 169.069C92.308 170.906 93.553 177.59 94.506 178.641C95.334 178.959 96.297 181.008 96.647 183.195C96.997 185.382 97.895 187.406 98.642 187.693C99.531 188.034 100 189.907 100 193.107C100 198.241 101.097 199.188 104.218 196.75ZM218.817 189.656C219.087 185.939 218.837 185 217.578 185C216.567 186.207 213.031 194.538 216.783 194.561C218.039 194.377 218.566 193.106 218.817 189.656ZM173.785 168.127C173.741 166.566 174.022 164.773 174.411 164.144C174.852 163.431 174.365 163 173.118 163C170.629 163 169.405 164.805 170.887 166.287C171.499 166.899 172 168.462 172 169.759C172 171.056 172.42 171.859 172.933 171.542C173.446 171.225 173.829 169.688 173.785 168.127ZM135.418 162.393C137.915 161.435 137.299 159 134.559 159C131.925 159 130.506 160.392 131.5 162C132.211 163.151 133.187 163.249 135.418 162.393ZM183.78 160.446C183.476 160.141 182.207 159.816 180.961 159.722C179.715 159.628 178.486 158.753 178.231 157.776C177.715 155.803 176.264 155.537 176.336 159.432C176.638 160.22 178.374 161.012 180.193 161.191C183.716 161.538 184.673 161.339 183.78 160.446ZM187 104.933C187 104.307 187.861 104.138 189.082 104.526C190.835 105.082 191.111 104.816 190.832 102.843C190.387 99.702 186.542 99.118 185.021 101.96C183.882 104.087 184.374 106 186.059 106C186.577 106 187 105.52 187 104.933ZM203 103.016C203 101.002 202.502 100 201.5 100C200.5 100.257 197.25 105.195 200 105.803C202.721 106.01 203 105.751 203 103.016Z"
          fill="#002900"
          stroke="#002900"
        />
        <path
          d="M157.504 79.013C157.152 77.904 155.995 76.533 154.932 75.964C153.14 73.092 150.394 71.124 150 70.548C150 69.465 148.411 69.02 143.75 68.798C139.404 68.591 137.576 68.119 137.75 67.25C130.619 62.827 132.015 69.646 137.541 70.933C136.743 72.224 128 72.375 125.559 66C127.682 66 128 65.544 128 62.5V59H120.5C114.756 59 113 59.326 113 60.393C114 60.503 117.25 68.206 117.75 68.464C121.277 69.831 116.101 72 109.309 72C103.357 72 100.997 70.706 104.5 66C103.362 66 103 64.764 103 60.883C103 55.952 102.909 55.784 100.476 56.249C97.437 56.83 96.073 55.151 98.275 53.541C99.145 52.905 100.001 50.646 100.178 48.52C100.65 42.855 103 42.671 103 48.3C103 51.982 103.365 52.862 107.723 50.276C108.652 49.92 110.233 48.924 111.238 48.064C112.243 47.204 113.568 46.5 114.183 46.5C116.161 46.5 116.017 42.325 113.974 40.476C112.51 39.151 112 37.398 112 33.69C117.653 26.45 118.919 38.97 120.5 32C121.631 32 122 33.215 122 36.932C122 41.271 122.361 42.121 125 44C129.724 47.364 128.909 50.438 123.334 50.283C121.829 50.241 120.879 53.807 122.181 54.612C124.068 53.394 136.174 56.733 132.5 53C131.389 53 131 51.833 131 48.5C131 45.167 131.389 44 135.926 40.691C137.114 41.002 138.542 40.39 144 34.567C144 31.786 147.493 30.086 149.351 31.963C149.774 33.679 149.774 41.267 151.564 38C153.207 38 154.455 42.152 153.69 45.077C157.414 53.778 168.022 55.586 158.082 59C155.352 59 153 60.04 153 61.247C147.106 64.053 156.147 69.362 156 70.5C156 71.58 157.105 72 159.95 72C162.161 72 164.252 72.583 168.273 77.127C166.859 78.541 163.423 77.73 163.791 76.068C163.978 75.225 163.501 74.977 162.459 75.377C161.567 75.719 160.648 76 160.418 76C160.188 76 160 76.873 160 77.941C160 80.682 158.27 81.425 157.504 79.013ZM146.767 64C146.969 62.935 146.173 62.5 141 65.066C141 66.708 146.445 65.701 146.767 64Z"
          fill="#FFCB87"
          stroke="#FFCB87"
        />
        <path
          d="M22.211 73.118C20.906 70.18 21.53 67.27 24.032 64.634C25.389 63.204 26.861 62.027 27.302 62.017C27.743 62.007 28.008 64.661 27.891 67.914C27.698 73.268 27.453 73.871 25.304 74.282C23.755 74.578 22.68 74.174 22.211 73.118Z"
          fill="#50745A"
          stroke="#50745A"
        />
        <path
          d="M200.384 80.558C199.588 78.483 200.295 75.734 201.75 75.25C202.595 74.969 203 75.995 203 78.417C203 81.997 201.429 83.282 200.384 80.558Z"
          fill="#6FA37F"
          stroke="#6FA37F"
        />
        <path
          d="M119 148.5C119 147.675 118.325 147 117.5 147C106.177 134.776 125.064 139.741 134.36 138.25C136.028 140.396 137.597 140.494 138.362 138.5C139.722 134.955 141 137.377 141 143.5V150H130C120.889 150 119 149.742 119 148.5Z"
          fill="#EDEFEA"
          stroke="#EDEFEA"
        />
        <path
          d="M164.287 37.734C161.405 35.522 160.063 33.726 163.7 32C165.597 32 171 38.28 171 40.486C171 41.847 168.092 40.655 164.287 37.734Z"
          fill="#FFFFC4"
          stroke="#FFFFC4"
        />
        <path
          d="M140.55 193.081C139.881 191.999 141.999 188 143.241 188C143.174 186.375 146.455 182.875 146.818 181.189C147.328 175.879 149.47 177.99 149.75 184.079C149.964 188.717 149.675 189.732 147.75 191.105C144.599 193.353 141.281 194.264 140.55 193.081Z"
          fill="#654431"
          stroke="#654431"
        />
        <path
          d="M56 48.5C56 47.333 54.667 47 50 47C45.434 47 44 46.655 44 45.555C44 44.54 42.585 44.019 39.25 43.805C34.898 43.526 34.473 43.269 34.183 40.744C33.976 38.947 34.411 37.779 35.433 37.387C36.572 36.95 37.041 35.245 37.15 31.143C36.065 22.631 41.469 35.173 40.362 32.5C39.897 33.713 40.764 34 44.893 34C48.852 34 50 34.35 50 35.559C50.073 36.575 53.589 37.719 52.719 33.907C52.702 31.381 52.998 28.813 53.376 28.201C54.682 26.087 56.596 28.07 56.829 31.779C57.075 35.7 59.457 38.422 61.842 37.507C62.881 37.108 63.085 37.554 62.634 39.235C62.3 40.481 62.022 43.412 62.014 45.75C62.001 49.803 61.861 50 59 50C57 50 56 49.5 56 48.5Z"
          fill="#9EC587"
          stroke="#9EC587"
        />
        <path
          d="M178.45 42.085C177.928 41.582 176.375 41.019 175 40.835C172.963 40.562 172.5 39.944 172.5 37.5C172.5 35.633 172.972 34.594 173.75 34.75C175.758 35.152 175.512 12.41 173.5 11.638C172.519 11.262 172 9.704 172 7.138C172 4.572 171.481 3.014 170.5 2.638C167.459 1.471 169.132 0 173.5 0C177.833 0 178 0.111 178 3C178 5 178.5 6 179.5 6C180.708 6 181 7.556 181 14C181 20.444 181.292 22 182.5 22C183.72 22 184 23.649 184 30.845C184 38.144 183.68 39.979 182.171 41.345C180.056 43.259 179.735 43.323 178.45 42.085Z"
          fill="#9EC587"
          stroke="#9EC587"
        />
        <path
          d="M162.706 149.372C162.338 149.004 162.302 147.645 162.627 146.352C160.425 142.557 163.377 141.321 166.506 141.629C168.392 140.739 168.858 139.753 168.816 136.743C168.766 133.085 167.02 130.442 160.4 134.765C158.851 135.799 156.87 139.783 157.169 141.261C157.587 143.321 155.044 147.001 153.215 146.983C151.036 146.961 146.638 142.394 147.482 141.029C150.959 142.642 153.451 133.843 153.201 134C154.991 134 159 129.862 159 128.014C159 127.268 159.699 125.885 160.554 124.941C161.409 123.997 162.18 122.274 166 117.5C168.345 114.675 169.531 115.801 169.157 120.5C168.804 124.943 168.838 125 171.899 125C175.104 125 175.505 124.163 175.059 118.399C174.92 116.61 178.535 113 180.465 113C181.67 113 180.891 117.846 179.5 119C177.043 121.039 177.757 121.868 182.25 122.193C186.035 122.467 186.5 122.774 186.5 125C186.5 127.303 186.067 127.539 181 128L175.5 128.5L175.196 132.148C174.971 134.847 173.751 137.003 170.51 140.435C168.101 142.986 165.988 146.034 165.815 147.208C165.489 149.418 163.875 150.541 162.706 149.372Z"
          fill="#665F54"
          stroke="#665F54"
        />
        <path
          d="M204.632 42.702C204.349 41.622 204.734 40.123 205.485 39.372C207.098 37.759 210 38.59 210 40.666C210 41.465 209.55 41.84 209 41.5C208.45 41.16 208 41.733 208 42.774C208 45.273 205.289 45.216 204.632 42.702Z"
          fill="#CCF48B"
          stroke="#CCF48B"
        />
        <path
          d="M163.558 210.75C161.796 204.949 161.561 205.303 178.465 188.371C187.913 178.908 195.588 172.007 196.655 172.017C197.67 172.027 199.49 173.08 199.993 179.089C198.394 180.415 197.065 181.884 197.042 182.353C196.992 183.36 183.505 197 182.56 197C182.204 197 179.796 199.317 177.207 202.15C174.618 204.983 171.422 208.358 170.104 209.65C167.509 212.194 164.167 212.756 163.558 210.75Z"
          fill="#C38242"
          stroke="#C38242"
        />
        <path
          d="M58.175 83.331C58.599 81.13 62.5 80.831 62.5 83C62.5 83.825 61.447 84.649 60.161 84.831C58.347 85.088 57.902 84.751 58.175 83.331Z"
          fill="#50745A"
          stroke="#50745A"
        />
        <path
          d="M63.5 65.001C63.149 64.434 62.893 55.2 62.93 44.484C62.987 27.811 62.78 25 61.498 25C55.314 19.836 50.502 -4.215 66 1.5C66 0.333 67.333 0 72 0H78V6.5C78 11.611 78.321 13 79.5 13C80.722 13 81 14.667 81 22C81 29.333 80.722 31 79.5 31C78.272 31 78 32.722 78 40.5C78 49.867 77.563 51.163 75.2 48.8C69.504 45.487 76.362 54.598 74.816 54.65C74.555 57.826 74.085 58.559 72.134 58.835C70.829 59.02 69.544 60.029 69.268 61.085C68.991 62.143 67.897 63 66.824 63C65.756 63 65.141 63.419 65.457 63.931C65.773 64.443 65.606 65.125 65.085 65.447C64.564 65.769 63.851 65.569 63.5 65.001ZM77 40.559C77 36.466 76.55 32.84 76 32.5C75.365 32.108 75 34.823 75 39.941C75 44.647 75.416 48 76 48C76.577 48 77 44.853 77 40.559Z"
          fill="#50745A"
          stroke="#50745A"
        />
        <path
          d="M160.705 52.817C160.095 52.44 159.236 52.354 154.736 47.729C152.418 46.839 153.741 41.179 156.355 40.806C158.074 40.561 158.619 39.608 159.1 36C159.43 33.525 159.781 32.175 159.881 33C160.079 34.644 167.999 41 169.848 41C168.274 37.144 183.111 44.2 184.129 43.595C184.2 45.743 184.333 48.737 184.425 50.25C184.566 52.569 184.193 53.003 182.046 53.021C180.645 53.033 175.521 53.146 170.657 53.273C165.793 53.4 161.315 53.194 160.705 52.817ZM180.45 49.081C181.241 47.801 178.218 44.979 176.685 45.567C175.994 45.832 175.429 46.939 175.429 48.025C175.429 49.401 176.104 50 177.655 50C178.88 50 180.137 49.587 180.45 49.081Z"
          fill="#CEF58F"
          stroke="#CEF58F"
        />
        <path
          d="M194.639 59.306C193.308 57.975 193.988 53 195.5 53C196.493 53 197 53.993 197 55.941C197 58.876 195.849 60.516 194.639 59.306Z"
          fill="#9EC587"
          stroke="#9EC587"
        />
        <path
          d="M185.449 74.944C183.761 73.079 183.773 73 185.763 73C186.903 73 188.548 72.727 189.418 72.393C191.684 71.523 191.425 74.254 189.104 75.703C187.543 76.678 186.897 76.544 185.449 74.944Z"
          fill="#6C8B62"
          stroke="#6C8B62"
        />
        <path
          d="M196 47C196 45.35 195.55 44 195 44C193.319 44 193.784 35.02 195.5 34.362C196.466 33.991 197 32.444 197 30.015C197 27.941 197.631 25.721 198.402 25.081C199.173 24.441 200.086 22.793 200.431 21.418C201.757 16.134 203 20.557 203 30.559C203 39.173 202.738 41 201.5 41C200.567 41 200 41.944 200 43.5C200 44.875 199.1 46.9 198 48L196 50V47Z"
          fill="#9EC587"
          stroke="#9EC587"
        />
        <path
          d="M97 77C97 74.96 97.222 74.506 98.1 74.75C94.586 74.059 99.995 61.228 103 70.998C103 71.689 106.92 72.022 114.25 71.953C120.438 71.895 126.062 71.881 126.066 76.035C123.546 74.687 119.688 74.712 118.313 76.087C117.53 76.87 117.038 76.87 116.554 76.087C116.163 75.454 112.667 75.006 108.191 75.015C103.61 75.024 101.039 75.372 101.834 75.876C102.898 76.55 102.831 76.851 101.502 77.361C99.047 78.303 97 78.139 97 77Z"
          fill="#998100"
          stroke="#998100"
        />
        <path
          d="M69 116C69 112.222 68.833 112 64.878 110C67.024 110 68.667 108.199 68.528 106C68.435 104.523 69.782 103.045 71.25 103.015C72.154 102.997 72.219 111.038 71.358 116.25C70.538 121.214 69 121.051 69 116Z"
          fill="#356E43"
          stroke="#356E43"
        />
        <path
          d="M22.496 109.163C22.223 108.89 22 106.941 22 104.833C22 102.092 22.428 101 23.5 101C24.843 104.069 29.01 101.569 29 100C30.271 100 34 96.309 37.148 90.521C37.359 89.395 38.809 88.104 40.51 87.527C42.155 86.969 44.094 85.947 44.821 85.256C51.957 79.952 47.28 89.798 50 90.359C50 91.956 47.325 95.49 41.714 101.307L33.429 109.896L28.21 109.778C25.34 109.713 22.769 109.436 22.496 109.163Z"
          fill="#4D6546"
          stroke="#4D6546"
        />
        <path
          d="M121.664 174.331C121.296 173.963 121.727 172.854 122.621 171.866C123.6 170.784 124.054 169.062 123.762 167.535C123.495 166.141 123.665 165 124.139 165C124.613 165 125 167.25 125 170C125 173.5 124.6 175 123.667 175C122.934 175 122.032 174.699 121.664 174.331Z"
          fill="#EDEFEA"
          stroke="#EDEFEA"
        />
        <path
          d="M92.75 56.311C91.787 56.059 91 55.264 91 54.543C91 52.85 87.217 51.469 81.5 51.074C82.267 49.842 79.836 46.823 78 48V39.421V30.841L80.75 31.415C82.262 31.731 84.952 32.086 86.726 32.205C89.31 32.379 90.179 33.026 91.098 35.461C92.293 43.949 93.548 32.07 93.9 38.643C93.972 42.36 93.584 43.946 92.5 44.362C90.631 45.079 90.526 49.621 92.354 50.7C93.099 51.14 93.936 52.737 94.215 54.25C94.494 55.763 94.672 56.948 94.611 56.884C94.55 56.82 93.713 56.563 92.75 56.311Z"
          fill="#CCF48B"
          stroke="#CCF48B"
        />
        <path
          d="M169.295 37.326C168.399 34.992 165.256 32 163.7 32C161.137 32 160 29.508 160 23.888C160 18.38 160.09 18.186 162.515 18.452C163.898 18.604 165.923 19.758 167.015 21.017C169.488 24.445 170.505 19.276 171 22.265C171 22.961 171.9 25.209 173 27.261C175.246 31.452 175.626 35.128 173.774 34.75C173.1 34.612 172.393 35.513 172.204 36.75C171.8 39.396 170.21 39.71 169.295 37.326Z"
          fill="#FFFFD3"
          stroke="#FFFFD3"
        />
        <path
          d="M134.638 198.5C134.321 197.675 133.373 197 132.531 197C131.474 195.743 128.26 187.555 130.693 187.362C132.174 186.99 134.357 185.639 135.543 184.359C139.162 182.23 139.745 180.984 139.214 180.224C137.959 180.576 134 177.565 134 176.259C133.281 170.249 121.856 176.148 128.362 170.5C129.105 168.564 133.391 168.561 134.996 170.495C135.553 178.379 137.238 174.288 140.5 176.303C144.742 180.423 145.308 185.714 141.89 189.292C140.73 190.507 138.946 193.413 137.926 195.75C135.895 200.404 135.496 200.737 134.638 198.5Z"
          fill="#8A5930"
          stroke="#8A5930"
        />
        <path
          d="M169.033 119.813C169.077 116.768 172.295 113 175.178 118.746C175.465 121.202 175.148 121.534 172.25 121.813C169.422 122.086 169.004 121.826 169.033 119.813Z"
          fill="#38613B"
          stroke="#38613B"
        />
        <path
          d="M66.344 80.645C65.158 78.813 64.483 76.906 64.844 76.406C65.607 75.349 69.552 73.39 72.658 72.525C75.808 71.648 76.103 69.777 73.975 64.177C71.789 58.423 72.492 57.604 78 59.483C82.068 60.871 83.013 63.388 80.06 64.968C78.927 65.574 78 66.504 78 67.035C78 68.683 81.905 72 83.845 72C84.86 72 86.503 72.898 94 76.559C94 78.67 82.174 78.615 81.362 76.5C75.35 75.315 74.148 83.961 71.991 82.511C70.117 84.769 68.714 84.306 66.344 80.645Z"
          fill="#998100"
          stroke="#998100"
        />
        <path
          d="M110.514 165.748C109.516 165.189 109 163.384 109 160.45C109 157.161 108.609 156 107.5 156C105.383 156 105.66 154.855 108.408 152.25C111.275 149.532 119 148.985 119 151.5C125.952 151.231 125.952 161.872 128 164.535C128 166.254 127.551 166.306 123.257 165.074C121.481 164.565 119.8 164.514 119.523 164.963C118.781 166.164 112.271 166.731 110.514 165.748Z"
          fill="#96B094"
          stroke="#96B094"
        />
        <path
          d="M184.513 105.021C184.18 104.482 184.408 103.105 185.021 101.96C186.542 99.118 190.387 99.702 190.832 102.843C191.111 104.816 190.835 105.082 189.082 104.526C187.861 104.138 187 104.307 187 104.933C187 106.271 185.322 106.33 184.513 105.021Z"
          fill="#50745A"
          stroke="#50745A"
        />
        <path
          d="M134.378 214C134.378 207.675 134.541 205.087 134.739 208.25C134.937 211.413 134.937 216.587 134.739 219.75C134.541 222.913 134.378 220.325 134.378 214Z"
          fill="#8A5930"
          stroke="#8A5930"
        />
        <path
          d="M81.09 28.39C80.948 23.492 82.185 16 83.136 16C86.495 16.88 93.446 30.878 85.029 25C83.664 25 82.769 26 82.119 28.25L81.18 31.5L81.09 28.39Z"
          fill="#FFFFD3"
          stroke="#FFFFD3"
        />
        <path
          d="M20.25 100.338C19.562 100.061 19 98.521 19 96.917C19 94.343 19.352 94 22 94C25.876 94.428 27.016 87.595 28.168 92.967C28.507 96.524 28.304 97 26.443 97C23.644 97 22.764 98.011 24.131 99.658C24.997 100.701 24.828 100.982 23.372 100.921C22.342 100.878 20.938 100.615 20.25 100.338Z"
          fill="#385F44"
          stroke="#385F44"
        />
        <path
          d="M129.015 114.25C129.026 111.461 129.279 110.884 130 112C131.274 113.971 131.274 118 130 118C129.45 118 129.007 116.312 129.015 114.25Z"
          fill="#3A3329"
          stroke="#3A3329"
        />
        <path
          d="M67.067 92.126C66.48 91.029 66 89.629 66 89.015C66 87.492 73.195 81.003 74.197 81.622C75.647 82.518 75.104 88 73.566 88C72.747 88 71.997 89.174 71.816 90.741C71.43 94.082 68.562 94.919 67.067 92.126Z"
          fill="#679166"
          stroke="#679166"
        />
        <path
          d="M130.25 17.056C127.896 15.092 127.267 13 129.031 13C129.218 15.273 143.195 18.529 137.5 18.851C133.983 18.909 131.833 18.376 130.25 17.056Z"
          fill="#E2EFA2"
          stroke="#E2EFA2"
        />
        <path
          d="M25.361 223.25C25.452 222.101 24.899 221.601 23.75 221.794C22.736 221.964 22 221.462 22 220.601C22 219.567 23.294 219.021 26.25 218.807C29.892 218.543 30.549 218.15 30.845 216.056C31.052 214.592 30.511 213.116 29.495 212.373C26.74 210.358 28.533 209.314 35.086 209.117C40.645 208.95 41.167 209.105 40.479 210.716C39.041 214.084 38.821 217.691 39.829 221.343L40.839 225H33.031C26.208 225 25.24 224.779 25.361 223.25Z"
          fill="#654431"
          stroke="#654431"
        />
        <path
          d="M122 176.507C122 175.401 120.941 175.056 117.912 175.175C113.228 175.359 111.85 173.98 112.239 169.5C112.458 166.978 112.978 166.448 115.5 166.173C117.15 165.993 118.906 165.452 119.403 164.97C120.824 163.591 124 165.827 124 168.206C124 169.381 123.238 171.185 122.306 172.214C120.704 173.984 120.727 174.115 122.737 174.641C124.038 174.981 124.653 175.741 124.324 176.599C123.611 178.458 122 178.394 122 176.507Z"
          fill="#D5D9D4"
          stroke="#D5D9D4"
        />
        <path
          d="M31 75.469C31 74.077 30.325 72.679 29.5 72.362C28.443 71.957 28 70.308 28 66.786C28 62.752 27.71 61.898 26.5 62.362C21.824 59.596 30.324 51.108 29.5 50.362C30.518 49.971 31 48.375 31 45.393C31 42.305 31.414 41 32.393 41C33.159 41 34.045 41.675 34.362 42.5C34.756 43.528 36.364 44 39.469 44C42.83 44 44 44.387 44 45.5C44 46.667 45.333 47 50 47C54.667 47 56 47.333 56 48.5C56 49.494 56.994 50 58.948 50C61.796 50 61.906 49.822 62.223 44.75C62.403 41.862 62.54 45.912 62.526 53.748C62.507 64.464 62.19 67.996 61.25 67.998C59.283 69.845 57.945 76.109 55.5 76C50.742 78.426 44 78.719 41 76.5C41 77.633 39.778 78 36 78C31.317 78 31 77.84 31 75.469Z"
          fill="#6FA37F"
          stroke="#6FA37F"
        />
        <path
          d="M109 47.731C109 45.526 105.633 42.491 104.183 43.387C103.779 43.637 103.323 37.689 103.17 30.17C102.962 19.944 102.543 16.231 101.504 15.432C100.714 14.824 100.017 12.205 99.887 9.353C99.557 2.131 102.066 -0.204003 109.719 0.201997C115.084 0.486997 118.129 2.444 114.341 3.173C112.74 3.481 112.547 5.183 112.316 20.975C112.082 37.009 112.217 38.602 113.977 40.476C115.983 42.611 116.118 46.5 114.187 46.5C113.57 46.5 112.15 47.283 111.032 48.24C109.075 49.915 109 49.897 109 47.731Z"
          fill="#9EC587"
          stroke="#9EC587"
        />
        <path
          d="M175.376 92.539C174.697 90.769 178.756 84.068 182.458 80.849C184.166 79.364 184.698 78.061 184.358 76.187C183.376 73.914 191.877 76.715 190.533 75.199C191.421 76.087 186.904 82.188 182.24 86.402C179.908 88.509 178 90.828 178 91.557C178 93.598 176.061 94.324 175.376 92.539Z"
          fill="#4D6546"
          stroke="#4D6546"
        />
        <path
          d="M101.863 77.106C103.014 76.377 103.014 76.158 101.863 75.7C101.113 75.402 102.112 75.122 104.083 75.079C106.637 75.023 107.667 75.431 107.667 76.5C107.667 77.557 106.608 77.996 104.083 77.985C101.682 77.975 100.949 77.685 101.863 77.106Z"
          fill="#E29959"
          stroke="#E29959"
        />
        <path
          d="M94.595 106.892C95.643 105.733 96.354 103.899 96.175 102.818C95.958 101.508 96.542 100.671 97.925 100.309C99.637 99.861 100 98.98 100 95.276C100 92.017 99.646 90.922 98.708 91.282C97.314 91.817 93.306 89.361 94.168 88.499C94.455 88.212 96.447 87.869 98.595 87.738L102.5 87.5L102.798 93.75C103.041 98.853 102.812 100 101.548 100C100.38 100 100 101.105 100 104.5V109H96.345C92.692 109 92.691 108.999 94.595 106.892Z"
          fill="#002900"
          stroke="#002900"
        />
        <path
          d="M151.25 90.254C150.562 90.023 150 89.196 150 88.417C150 87.235 146.097 87 126.417 87C107.994 87 102.925 86.727 103.252 85.75C103.856 83.949 148.732 83.944 156 88.601C156 89.908 153.16 90.897 151.25 90.254Z"
          fill="#142620"
          stroke="#142620"
        />
        <path
          d="M124.75 43.847C122.396 42.123 122 41.126 122 36.917C122 33.213 121.63 32 120.5 32C118.147 33.743 117.242 33.743 115.796 31.493C113.126 30.305 111.753 24.848 112.275 17.5C112.614 12.731 112.639 12.789 112.815 18.75L113 25H118.059C121.39 25 122.892 25.364 122.458 26.067C122.095 26.655 122.742 27.382 123.899 27.684C126.44 28.349 126.518 29.279 124.315 32.642C123.643 40.502 129.331 40.03 129.5 39C131.4 40.577 131.457 44 129.583 44C128.804 44 128.016 44.418 127.833 44.93C127.65 45.442 126.262 44.955 124.75 43.847Z"
          fill="#E2EFA2"
          stroke="#E2EFA2"
        />
        <path
          d="M90.875 115.5C90.629 114.517 90.248 110.957 90.125 108.5C89.67 105.657 84.715 111.303 84 103.5C84 100.572 84.368 99.981 86.25 99.882C87.488 99.817 88.95 99.864 89.5 99.987C91.945 100.534 95.233 100.167 96.157 99.243C96.711 98.689 97.24 96.756 97.332 94.949C97.601 89.684 100 90 100 95.3C100 98.98 99.635 99.862 97.925 100.309C96.542 100.671 95.958 101.508 96.175 102.818C96.354 103.899 95.643 105.733 94.595 106.892C93.547 108.051 93.119 109 93.644 109C94.169 109 94.415 110.575 94.19 112.5C93.942 114.626 93.236 116 92.391 116C91.626 116 90.944 115.775 90.875 115.5ZM93.137 105.3C92.006 104.85 92.001 104.617 93.108 103.933C94.827 102.871 93.564 101.57 91.56 102.339C89.6 103.091 90.662 106.026 92.857 105.921C94.059 105.863 94.134 105.697 93.137 105.3Z"
          fill="#54524A"
          stroke="#54524A"
        />
        <path
          d="M68.872 149.807C68.062 147.855 68.53 144.14 69.761 142.75C71.191 141.135 71.11 141 68.727 141C67.022 141 65.312 142.064 63.693 144.133C61.065 147.491 58.989 147.295 59.017 143.691C59.041 140.656 62.78 137.435 67.236 136.608C72.919 135.554 75 137.143 75 142.535C75 145.941 75.375 147 76.583 147C77.454 147 77.982 147.562 77.756 148.25C77.41 149.302 69.255 150.731 68.872 149.807Z"
          fill="#507750"
          stroke="#507750"
        />
        <path
          d="M115.35 128C115.02 126.35 114.131 125 113.375 125C112.575 125 112 123.955 112 122.5C112 118.967 108.663 116 104.688 116C102.164 116 100.846 115.282 99.147 112.984C96.063 107.439 103.542 105.517 102.826 102.491C102.676 100.26 103.211 98.36 104.295 97.276C105.902 95.669 106 95.786 106 99.286C106 101.921 106.436 103 107.5 103C121.633 120.033 121.633 120.033 124.083 120.524C126.085 119.759 125.454 108 124.25 105.968C125.488 105.951 127.373 105.276 128.25 101.754C128.678 99.62 131.399 98.093 133.75 98.667C135.989 92.26 124.06 98.061 124.988 94C123.266 94 121.195 93.338 120.386 92.529C119.577 91.72 116.692 90.762 113.976 90.402C103.787 89.05 110.774 88 129.952 88C146.467 88 149.88 88.246 150.349 89.468C151.198 91.681 149.843 92.015 143.904 91.054C140.932 90.573 138.252 90.477 137.949 90.84C137.011 91.964 138.119 104 139.16 104C140.294 104 143 106.514 143 107.568C143 107.959 142.223 108.848 141.274 109.542C139.654 110.727 139.684 111.078 141.774 115.262C144.346 120.412 144.964 131 142.693 131C139.603 129.167 138.872 123.208 138.543 128.25C137.427 132.285 134 132.034 134 127.917C134 124.091 131.645 124.434 131.184 128.327C130.736 132.108 128 131.827 128 128C128 126 127.5 125 126.5 125C125.5 125 125 126 125 128C125 130 124.5 131 123.5 131C122.5 131 122 130 122 128C122 126 121.5 125 120.5 125C119.5 125 119 126 119 128C119 130.022 118.503 131 117.475 131C116.581 131 115.702 129.76 115.35 128ZM137.5 111.583C137.5 106.284 137.149 104.571 136 104.257C138.225 109.352 130.119 96.757 129.5 106.362C128.4 106.784 128 108.518 128 112.86V118.783L132.75 118.641L137.5 118.5V111.583Z"
          fill="#EDEFEA"
          stroke="#EDEFEA"
        />
        <path
          d="M203 41.977V36.339L209 36.42C212.3 36.464 215.19 36.05 215.421 35.5C215.652 34.95 215.878 37.312 215.921 40.75C215.975 45.063 215.613 47.039 214.75 47.126C214.062 47.195 211.137 47.334 208.25 47.434L203 47.616V41.977ZM208 42.774C208 41.733 208.45 41.16 209 41.5C209.55 41.84 210 41.465 210 40.666C210 38.59 207.098 37.759 205.485 39.372C203.834 41.023 204.583 44.667 206.573 44.667C207.358 44.667 208 43.815 208 42.774Z"
          fill="#D2FFAC"
          stroke="#D2FFAC"
        />
        <path
          d="M87.184 119.25C87.453 116.908 88.019 116.453 91 116.183C93.527 115.858 92.829 121.244 90.375 122C87.139 122 86.892 121.787 87.184 119.25Z"
          fill="#D5D9D4"
          stroke="#D5D9D4"
        />
        <path
          d="M95.384 19.204C94.787 18.817 94.05 16.587 93.745 14.25C93.321 11.004 93.522 10 94.595 10C96.429 10 96.371 9.068 94.402 6.892C92.668 4.976 93.255 3 95.559 3C94.701 2 103.02 -1.25 101.179 3.114C99.657 4.418 99.461 5.603 99.983 10.347C100.524 15.265 100.332 16.279 98.538 17.964C97.4 19.033 95.981 19.591 95.384 19.204Z"
          fill="#B4C899"
          stroke="#B4C899"
        />
        <path
          d="M46.75 203.284C44.47 202.939 44 202.367 44 199.934C44 197.993 44.508 197 45.5 197C46.325 197 47 197.675 47 198.5C47 199.325 47.622 200 48.383 200C49.144 200 50.002 200.9 50.29 202C50.578 203.1 50.517 203.932 50.156 203.85C49.795 203.768 48.263 203.513 46.75 203.284Z"
          fill="#356E43"
          stroke="#356E43"
        />
        <path
          d="M94.001 32.281C94.001 30.723 94.445 30.233 95.494 30.636C96.316 30.951 96.756 31.584 96.473 32.043C96.19 32.502 96.737 33.313 97.689 33.846C99.119 34.646 98.949 34.787 96.711 34.657C94.627 34.536 94.002 33.988 94.001 32.281Z"
          fill="#8CA775"
          stroke="#8CA775"
        />
        <path
          d="M178.513 70.75C178.113 69.787 177.159 69 176.393 69C174.174 62.116 168.577 62.116 172 60.571C172 58.544 174.801 56 177.032 56C180.821 56 185.557 64.419 182.746 66.157C182.157 66.521 181.126 68.098 180.457 69.66C179.421 72.077 179.132 72.239 178.513 70.75Z"
          fill="#9EC587"
          stroke="#9EC587"
        />
        <path
          d="M212.446 214.913C211.415 213.246 213.733 211.333 215.113 212.713C216.267 213.867 215.545 216 214 216C213.515 216 212.816 215.511 212.446 214.913Z"
          fill="#708E65"
          stroke="#708E65"
        />
        <path
          d="M76.75 59.268C74.401 58.711 74.166 50 76.5 50C78.207 46.959 83.305 49.392 81.5 51.074C82.6 51.15 84.4 51.277 85.5 51.356C86.6 51.435 87.455 52.062 87.4 52.75C87.345 53.438 87.232 55.313 87.15 56.917C87.008 59.671 86.763 59.829 82.75 59.758C80.412 59.717 77.713 59.496 76.75 59.268Z"
          fill="#D0CD82"
          stroke="#D0CD82"
        />
        <path
          d="M52 36.941C52 36.359 51.55 36.16 51 36.5C50.45 36.84 50 36.416 50 35.559C50 34.35 48.852 34 44.893 34C40.764 34 39.897 33.713 40.362 32.5C59.885 18.551 59.885 4.057 61.548 25C62.81 25 63.041 26.14 62.798 31.171C62.634 34.565 62.032 37.495 61.46 37.684C59.369 38.373 57.058 35.426 56.829 31.779C56.596 28.07 54.682 26.087 53.376 28.201C52.998 28.813 52.718 31.268 52.754 33.657C52.79 36.046 52.635 38 52.41 38C52.185 38 52 37.523 52 36.941Z"
          fill="#CEF58F"
          stroke="#CEF58F"
        />
        <path
          d="M151.178 133.131C150.451 132.67 149.485 130.651 149.033 128.646C149.215 120.347 161.157 120.347 161.754 119.348C163.064 120.158 162.263 123.537 160.392 125.09C159.626 125.725 159 127.011 159 127.948C159 129.729 155.053 134.011 153.436 133.985C152.921 133.977 151.905 133.592 151.178 133.131Z"
          fill="#806048"
          stroke="#806048"
        />
        <path
          d="M62.31 58.5C62.316 55.2 62.502 53.971 62.725 55.768C62.948 57.565 62.943 60.265 62.715 61.768C62.487 63.271 62.304 61.8 62.31 58.5Z"
          fill="#679166"
          stroke="#679166"
        />
        <path
          d="M128.168 114.592C128.168 114.592 128.336 110.5 130.849 112.25C130.707 101.576 130.92 100 135.534 106C136.771 106 137.033 107.239 136.891 112.407L136.715 118.815L132.358 118.749L128 118.683L128.168 114.592Z"
          fill="#47473A"
          stroke="#47473A"
        />
        <path
          d="M156.25 101.416C153.466 100.198 153 99.489 153 96.466C153 92.058 155.292 90.904 157.829 94.037C159.327 95.887 160.713 96.309 165.577 96.395C170.129 96.475 171.5 96.847 165.7 101.596C164.698 103.354 160.5 103.275 156.25 101.416Z"
          fill="#708E65"
          stroke="#708E65"
        />
        <path
          d="M12.652 40.25C12.301 36.537 12.011 29.387 12.007 24.361C12.001 16.269 12.2 15.238 13.75 15.361C15.255 15.48 15.541 14.417 15.792 7.75C15.792 7.75 16.084 0 22 0V14C22 25.778 22.238 28 23.5 28C27.497 37.612 14.652 45.919 14.645 47C13.701 47 13.096 44.95 12.652 40.25Z"
          fill="#50745A"
          stroke="#50745A"
        />
        <path
          d="M131 214C131 204.889 130.742 203 129.5 203C128.661 203 128 202.109 128 200.979C128 198.701 132.538 196.073 133.874 197.577C134.325 198.085 134.484 204.462 134.228 211.75C133.864 222.133 133.465 225 132.382 225C131.29 225 131 222.693 131 214Z"
          fill="#BC8947"
          stroke="#BC8947"
        />
        <path
          d="M168.638 60.5C168.258 59.51 166.692 59 164.031 59C161.114 59 160 58.585 164.059 54.429C166.022 52.063 180.333 52.755 180.809 55.239C181.083 56.668 180.624 56.875 178.235 56.397C175.14 55.778 172 57.88 172 60.571C172 62.465 169.371 62.41 168.638 60.5Z"
          fill="#CCDC6B"
          stroke="#CCDC6B"
        />
        <path
          d="M40.718 224.25C40.379 223.614 40.441 217.977 40.895 208.25C40.955 206.963 41.642 206 42.5 206C43.691 206 44 207.448 44 213.035C44 217.827 44.515 220.856 45.615 222.535C47.21 224.969 47.192 225 44.174 225C42.493 225 40.938 224.663 40.718 224.25Z"
          fill="#38613B"
          stroke="#38613B"
        />
        <path
          d="M121.5 120C121.16 119.45 119.982 119 118.882 119C117.543 119.191 115.564 113.775 114.015 114C112.997 115.55 112.965 115.46 112.542 109.999C112.478 109.173 112.078 107.936 111.654 107.249C110.636 105.602 117.118 105.552 121.599 107.172C124.685 108.288 124.856 108.622 125.17 114.163C125.406 118.331 125.122 120.127 124.168 120.491C122.367 121.179 122.211 121.151 121.5 120Z"
          fill="#D5D9D4"
          stroke="#D5D9D4"
        />
        <path
          d="M128.18 108.75C128.356 107.512 128.95 106.5 129.5 106.5C130.05 106.5 130.644 107.512 130.82 108.75C131.04 110.298 130.628 111 129.5 111C128.372 111 127.96 110.298 128.18 108.75Z"
          fill="#002900"
          stroke="#002900"
        />
        <path
          d="M116 64.469C116 63.627 115.325 62.679 114.5 62.362C113.675 62.045 113 61.159 113 60.393C113 59.326 114.756 59 120.5 59C120.5 59 128 59 128 66H122C117.279 66 116 65.674 116 64.469Z"
          fill="#105000"
          stroke="#105000"
        />
        <path
          d="M94 76.559C94 74.526 92.153 73.628 90.608 74.91C89.636 75.716 88.843 75.483 87.497 73.996C86.503 72.898 84.683 72 83.972 69C86.122 69 88.184 68.511 93.578 69C95.901 69 98.42 71.247 97.325 72.342C96.963 72.704 97.191 73 97.833 73C98.475 73 99 73.45 99 74C99 74.55 98.438 74.887 97.75 74.75C97.052 74.61 96.63 75.272 96.794 76.25C96.968 77.288 96.46 78 95.544 78C94.695 78 94 77.352 94 76.559Z"
          fill="#965A35"
          stroke="#965A35"
        />
        <path
          d="M100 28.937C100 27.193 99.372 25.697 98.5 25.362C96.205 24.482 96.692 19.637 99.324 17.165C100.602 15.964 101.952 15.286 102.324 15.658C102.696 16.03 103 19.586 103 23.56C103 29.061 102.642 30.924 101.5 31.362C100.372 31.795 100 31.193 100 28.937Z"
          fill="#FFFFC4"
          stroke="#FFFFC4"
        />
        <path
          d="M141.25 78.253C130.396 77.999 128 77.676 128 76.471C128 75.259 130.098 75 139.935 75C151.774 75 157.692 76.071 156.501 77.998C156.16 78.549 155.571 78.902 155.191 78.782C154.811 78.662 148.538 78.424 141.25 78.253Z"
          fill="#FFD37C"
          stroke="#FFD37C"
        />
        <path
          d="M123.122 156.096C121.181 154.867 122.65 153 125.559 153C128.299 153 128.915 155.435 126.418 156.393C124.503 157.128 124.791 157.153 123.122 156.096Z"
          fill="#FFFFF8"
          stroke="#FFFFF8"
        />
        <path
          d="M166.5 95.992C162.518 95.439 161.947 95.145 163.694 94.547C165.218 94.026 165.982 92.834 166.194 90.648C169.101 85.667 175.12 69.016 180.91 72C183.194 72 183.716 72.648 184.38 76.311C184.706 78.109 184.3 79.394 183.137 80.241C180.044 82.496 175.558 89.211 175.358 91.887C175.25 93.324 175.126 95.062 175.081 95.75C174.995 97.073 174.409 97.09 166.5 95.992Z"
          fill="#38613B"
          stroke="#38613B"
        />
        <path
          d="M166.356 220.75C166.446 216.905 168.761 213.159 171.125 213.033C172.105 212.981 171.885 218.37 170.855 219.645C169.77 220.987 170.08 223.192 171.5 224.235C172.05 224.639 171.095 224.977 169.378 224.985C166.354 225 166.26 224.867 166.356 220.75Z"
          fill="#654431"
          stroke="#654431"
        />
        <path
          d="M66.67 214.75C66.344 212.962 65.779 210.375 70.293 207.932C71.557 206.52 73.134 205.544 73.796 205.765C75.098 206.199 75.542 216.086 69.19 218C67.803 218 67.096 217.088 66.67 214.75Z"
          fill="#654431"
          stroke="#654431"
        />
        <path
          d="M48.749 84.177C46.605 83.781 46.461 82.145 48.5 81.362C49.325 81.045 50.004 80.272 50.008 79.643C50.015 78.659 55.026 75.595 55.54 76.26C55.642 76.392 55.958 78.331 56.243 80.57C56.754 84.585 56.719 84.639 53.63 84.57C51.908 84.531 49.711 84.355 48.749 84.177Z"
          fill="#91B584"
          stroke="#91B584"
        />
        <path
          d="M178 129.5C178 128.5 179 128 181 128C183 128 184 128.5 184 129.5C184 130.5 183 131 181 131C179 131 178 130.5 178 129.5Z"
          fill="#38613B"
          stroke="#38613B"
        />
        <path
          d="M6.688 56.354C5.462 55.128 5.961 51.122 7.443 50.292C8.388 49.763 8.992 47.415 9.193 43.492C9.425 38.969 9.868 37.5 11 37.5C13.157 37.5 13.721 48 11.646 49.517C10.835 50.11 10.021 51.888 9.836 53.47C9.503 56.317 8.015 57.681 6.688 56.354Z"
          fill="#7F9179"
          stroke="#7F9179"
        />
        <path
          d="M203.479 36.145C203.216 35.882 203 30.999 203 25.293C203 16.19 203.268 14.557 205.188 11.96C206.548 10.121 208.278 9 209.759 9C211.926 9 212 9.142 210.571 10.571C208.407 12.735 208.603 15.083 214.5 22C215.675 22 215.997 23.354 215.985 28.25C215.977 31.688 215.639 34.95 215.235 35.5C214.502 36.498 204.387 37.053 203.479 36.145ZM212 24.93C212 22.348 211.655 21.911 209.828 22.18C207.299 22.552 206.074 25 208.417 25C209.288 25 210 25.675 210 26.5C210 27.325 210.45 28 211 28C211.55 28 212 26.618 212 24.93Z"
          fill="#FFFFD3"
          stroke="#FFFFD3"
        />
        <path
          d="M90.624 104.462C90.284 103.576 90.681 102.676 91.56 102.339C93.564 101.57 94.827 102.871 93.108 103.933C92.001 104.617 92.006 104.85 93.137 105.3C94.134 105.697 94.059 105.863 92.857 105.921C91.953 105.964 90.949 105.308 90.624 104.462Z"
          fill="#605956"
          stroke="#605956"
        />
        <path
          d="M134.153 38.133C132.969 37.106 131.985 35.193 131.968 33.883C123.899 27.684 123.899 27.684 122.458 26.067C122.892 25.364 121.39 25 118.059 25H113V19V13H118.531C122.525 13 124.222 13.417 131.077 17.593C132.096 18.821 134.015 19.132 139.449 18.954C150.759 18.583 150 18.108 150 25.559C150 29.716 149.63 31.889 148.991 31.494C146.98 30.251 144 32.086 140.362 38.5C139.575 40.551 136.748 40.384 134.153 38.133Z"
          fill="#FFFFC4"
          stroke="#FFFFC4"
        />
        <path
          d="M69 100C69 98 69.5 97 70.5 97C71.5 97 72 98 72 100C72 102 71.5 103 70.5 103C69.5 103 69 102 69 100Z"
          fill="#679166"
          stroke="#679166"
        />
        <path
          d="M128 214C128 204.889 128.258 203 129.5 203C130.742 203 131 204.889 131 214C131 223.111 130.742 225 129.5 225C128.258 225 128 223.111 128 214Z"
          fill="#D19E4E"
          stroke="#D19E4E"
        />
        <path
          d="M12.688 15.354C12.31 14.976 12 11.366 12 7.333C12 0.616 12.172 0 14.042 0C15.946 0 16.064 0.519 15.792 7.67C15.525 14.683 14.516 17.182 12.688 15.354Z"
          fill="#FFFFD3"
          stroke="#FFFFD3"
        />
        <path
          d="M197.667 80.333C197.3 79.966 197 77.266 197 74.333C197 70.441 196.624 69 195.607 69C194.841 69 193.977 69.618 193.687 70.374C193.021 72.11 186.76 73.326 182.877 72.473C180.411 71.931 180.031 71.466 180.585 69.662C180.95 68.473 182.092 66.695 183.124 65.711C184.511 64.388 185 62.499 185 58.461C185 54.542 185.381 53 186.35 53C187.093 53 188.738 51.645 190.007 49.99C191.276 48.335 192.495 47.162 192.716 47.383C192.937 47.604 193.336 49.97 193.603 52.642C193.87 55.314 194.29 58.091 194.537 58.813C195.27 60.96 197 59.099 197 56.163C197 50.773 203.58 48.166 207.847 51.867C210.505 54.172 210.62 56 208.108 56C200.025 61.597 205.951 63.784 200.086 72.743C200.62 79.564 199.72 82.386 197.667 80.333Z"
          fill="#50745A"
          stroke="#50745A"
        />
        <path
          d="M103 221.222C103 217.239 105.787 213.632 107.869 214.919C108.482 215.298 109.274 217.721 109.628 220.304L110.272 225H106.636C103.096 225 103 224.9 103 221.222Z"
          fill="#8A5930"
          stroke="#8A5930"
        />
        <path
          d="M81.667 155.333C81.3 154.966 81 152.941 81 150.833C81 148.092 80.572 147 79.5 147C78.4 147 78 145.857 78 142.718C78 138.487 77.946 138.421 73.351 137.064C66.431 132.472 73.334 129.19 75.362 127.585C76.263 127.931 77.18 130.013 77.566 132.589C77.93 135.015 78.605 137 79.068 137C79.531 137 80.205 138.575 80.566 140.5C81.056 143.111 81.729 144 83.218 144C84.627 144 85.036 144.465 84.607 145.582C84.273 146.452 84 149.152 84 151.582C84 155.708 83.249 156.915 81.667 155.333Z"
          fill="#356E43"
          stroke="#356E43"
        />
        <path
          d="M171.695 16.24C169.3 15.699 170.083 13.584 172.828 13.18C174.239 12.972 175 13.389 175 14.371C175 16.233 174.048 16.772 171.695 16.24Z"
          fill="#FFFFD3"
          stroke="#FFFFD3"
        />
        <path
          d="M141.82 115.353C139.689 111.086 139.655 110.726 146.25 106.187C149.366 106.487 149.513 106.695 149.805 111.25C150.046 115.011 149.786 116 145.546 119.344C144.556 119.724 143.367 118.45 141.82 115.353Z"
          fill="#D5D9D4"
          stroke="#D5D9D4"
        />
        <path
          d="M141 144C141 139.511 141.34 137.947 142.25 138.25C143.042 138.514 143.5 140.622 143.5 144C143.5 147.378 143.042 149.486 142.25 149.75C141.34 150.053 141 148.489 141 144Z"
          fill="#605956"
          stroke="#605956"
        />
        <path
          d="M66 208C65.411 206.9 64.271 206 63.465 206C62.659 206 62 205.579 62 205.064C62 203.814 42.708 184.483 41.75 184.773C41.338 184.898 41 184.515 41 183.923C41 183.331 39.658 181.504 38.017 179.863C35.163 177.009 35.103 176.774 36.632 174.44C38.979 170.858 41.806 171.439 46.655 176.5C49.026 178.975 51.424 181 54 184C55.3 184 59.575 188.275 59.25 189.25C59.112 189.663 59.511 190 60.135 190C61.312 190 65.967 194.573 66.042 195.802C66.065 196.186 67.415 197.604 69.042 198.953C72.475 201.801 72.959 205.822 70.171 208.345C67.821 210.472 67.3 210.429 66 208Z"
          fill="#C38242"
          stroke="#C38242"
        />
        <path
          d="M197 104.756C197 104.306 197.675 103.679 198.5 103.362C199.5 101.377 202.75 99.031 203 103.016C203 105.751 202.721 106.01 200 105.803C198.35 105.677 197 105.206 197 104.756Z"
          fill="#385F44"
          stroke="#385F44"
        />
        <path
          d="M125 100C125 95.232 125.32 94 126.559 94C125.269 97.62 135.14 95.167 133.75 98.667C131.399 98.093 128.678 99.62 128.25 101.754C128.113 102.44 128.536 103 129.191 103C130.436 103 127.059 105.912 125.75 105.968C125.338 105.985 125 103.3 125 100Z"
          fill="#D5D9D4"
          stroke="#D5D9D4"
        />
        <path
          d="M154.25 113.316C153.562 112.115 153 108.651 153 105.618V100.104L156.002 101.15C159.984 102.538 160.435 103.517 158.097 105.695C156.96 106.754 156.015 109.171 155.825 111.504C155.52 115.25 155.422 115.364 154.25 113.316Z"
          fill="#606751"
          stroke="#606751"
        />
        <path
          d="M128 54.5C128 53.675 127.325 53 126.5 53C121.824 52.961 130.324 45.627 129.5 44C130.611 44 131 45.167 131 48.5C131 51.833 131.389 53 132.5 53C133.325 53 134 53.675 134 54.5C134 55.5 133 56 131 56C129 56 128 55.5 128 54.5Z"
          fill="#563700"
          stroke="#563700"
        />
        <path
          d="M126 38.55C126 37.752 125.274 36.693 124.386 36.196C123.058 35.453 122.982 34.902 123.954 33.086C125.312 30.548 128.571 30.698 128.361 33.288C128.184 35.474 128.929 35.462 130.608 33.25C131.819 31.655 131.939 31.736 131.968 34.167C131.985 35.634 132.562 37.061 133.25 37.338C133.997 37.639 133.795 37.874 132.75 37.921C131.788 37.964 131 38.505 131 39.122C131 39.898 130.536 39.86 129.5 39C128.464 38.14 128 38.102 128 38.878C128 39.495 127.55 40 127 40C126.45 40 126 39.348 126 38.55Z"
          fill="#DDF3B6"
          stroke="#DDF3B6"
        />
        <path
          d="M150.686 74.52C149.138 73.713 145.651 72.757 142.936 72.397C139.74 71.973 138 71.259 138 70.371C138 69.362 139.584 69 144 69C148.667 69 150 69.333 150 70.5C150 71.325 150.622 72 151.383 72C152.144 72 153.002 72.9 153.29 74C153.578 75.1 153.742 75.997 153.656 75.994C153.57 75.991 152.234 75.327 150.686 74.52Z"
          fill="#935400"
          stroke="#935400"
        />
        <path
          d="M65 126.776C65 125.799 64.564 125 64.032 125C61.863 121.557 69.538 118.776 70.467 119.749C72.146 120.07 73.081 121.09 73.518 123.081C74.37 126.961 73.694 127.724 69.006 128.171C65.691 128.487 65 128.246 65 126.776Z"
          fill="#38613B"
          stroke="#38613B"
        />
        <path
          d="M187.667 224.333C186.565 223.231 186.871 222.504 189.839 219.18C193.484 215.097 196.968 214.89 197.079 218.75C201.571 220.395 201.571 221.923 204.643 223.5C205.976 224.833 205.153 225 197.238 225C192.34 225 188.034 224.7 187.667 224.333Z"
          fill="#38613B"
          stroke="#38613B"
        />
        <path
          d="M156 70.573C156 69.708 155.325 69 154.5 69C151.913 66.661 150.386 62.389 153 61.247C153 59.644 155.63 59 162.175 59C167.346 59 168.26 59.28 168.71 61C179.715 64.258 166.121 64.258 163.825 63.008C163.646 63.278 162.536 65.3 161.357 67.5C159.157 71.606 156 73.417 156 70.573Z"
          fill="#4D6546"
          stroke="#4D6546"
        />
        <path
          d="M107.694 77.361C106.367 76.034 108.253 75 112 75C114.135 75 116.184 75.489 116.554 76.087C117.038 76.87 117.53 76.87 118.313 76.087C120.172 74.228 127 75.03 127 77.107C127 78.113 108.687 78.354 107.694 77.361Z"
          fill="#FFD38D"
          stroke="#FFD38D"
        />
        <path
          d="M145.75 224.294C146.988 224.056 148 223.217 148 222.43C148.257 217.606 155.062 226.604 150 224.714C146.425 224.722 144.512 224.532 145.75 224.294Z"
          fill="#654431"
          stroke="#654431"
        />
        <path
          d="M100 128.582C100 125.602 100.273 122.452 100.607 121.582C101.656 118.849 103 119.858 103 123.378C103 125.236 103.675 127.315 104.5 128C109.176 130.742 100.676 132.697 101.5 134C100.351 134 100 132.732 100 128.582Z"
          fill="#95AA9E"
          stroke="#95AA9E"
        />
        <path
          d="M121.684 54.25C120.759 52.651 122.485 50.064 123.896 50.936C124.665 51.411 125.015 52.517 124.677 53.399C124.034 55.075 122.426 55.532 121.684 54.25Z"
          fill="#998100"
          stroke="#998100"
        />
        <path
          d="M137.8 95C137.13 90.997 137.919 89.648 140.376 90.591C141.875 91.166 141.908 91.448 140.646 92.874C139.854 93.769 139.022 95.4 138.796 96.5C138.511 97.89 138.207 97.433 137.8 95Z"
          fill="#95AA9E"
          stroke="#95AA9E"
        />
        <path
          d="M116.422 183.659C116.112 182.851 116.004 180.685 116.18 178.845C116.449 176.035 116.94 175.45 119.25 175.184C121.739 174.898 122 175.169 122 178.041C122 180.451 121.639 181.075 120.5 180.638C119.489 180.25 119 180.685 119 181.972C119 184.399 117.166 185.599 116.422 183.659Z"
          fill="#FFFFEA"
          stroke="#FFFFEA"
        />
        <path
          d="M136.979 181.987C136.174 181.49 134.5 181.338 133.258 181.65C127.379 179.576 128.934 174.018 134 176.048C134 176.624 135.238 178.161 136.75 179.463C139.524 181.851 139.689 183.662 136.979 181.987Z"
          fill="#9768B3"
          stroke="#9768B3"
        />
        <path
          d="M109.324 146.13C108.978 144.805 107.96 143.994 106.633 143.983C105.46 143.973 103.488 142.898 102.25 141.592C99.667 138.867 99.186 134 101.5 134C102.5 133 105.75 129.75 106 129.427C106 126.627 109.474 128.295 109.816 131.259C109.993 132.791 110.75 134 111.532 134C112.456 134 113.156 135.698 113.594 139C113.959 141.75 114.65 144 115.129 144C115.608 144 116 144.675 116 145.5C116 146.325 115.362 147 114.582 147C113.802 147 112.425 147.284 111.522 147.63C110.385 148.066 109.71 147.605 109.324 146.13Z"
          fill="#D5D9D4"
          stroke="#D5D9D4"
        />
        <path
          d="M100 102.917C100 99.091 102.355 99.434 102.816 103.327C103.04 105.221 102.676 106 101.566 106C100.483 106 100 105.049 100 102.917Z"
          fill="#95AA9E"
          stroke="#95AA9E"
        />
        <path
          d="M214.25 210.338C212.882 209.786 212.554 207.38 213.75 206.676C215.34 205.74 218.966 207.924 218.376 209.462C217.782 211.01 216.559 211.27 214.25 210.338Z"
          fill="#38613B"
          stroke="#38613B"
        />
        <path
          d="M129 151.5C127.933 150.214 128.267 150 131.346 150C134.127 150 134.808 150.338 134.362 151.5C134.045 152.325 132.989 153 132.015 153C131.041 153 129.685 152.325 129 151.5Z"
          fill="#605956"
          stroke="#605956"
        />
        <path
          d="M94.187 112.758C94.402 110.536 95.087 109.405 96.368 109.162C96.969 107.88 100.313 115.819 97.472 116C94.016 116 93.886 115.871 94.187 112.758Z"
          fill="#D0DDD5"
          stroke="#D0DDD5"
        />
        <path
          d="M196.22 94.364C194.253 92.12 194.143 91.609 195.419 90.632C196.232 90.009 197.033 87.7 197.199 85.5C197.476 81.822 197.721 81.515 200.25 81.688C202.753 81.859 203 81.568 203 78.438C206.266 73.135 210.623 80.396 212 76.5C213.931 74.174 216 74.691 216 77.5C216 79.819 212.969 83.977 211.25 84.017C209.508 84.057 206 88.985 206 91.391C199.17 89.769 201.025 94.366 200.75 96.982C199.512 96.972 197.474 95.794 196.22 94.364Z"
          fill="#385F44"
          stroke="#385F44"
        />
        <path
          d="M100.184 34.327C100.645 30.434 103 30.091 103 33.917C103 36.049 102.517 37 101.434 37C100.324 37 99.96 36.221 100.184 34.327Z"
          fill="#E2EFA2"
          stroke="#E2EFA2"
        />
        <path
          d="M75 39.941C75 34.823 75.365 32.108 76 32.5C76.55 32.84 77 36.466 77 40.559C77 44.853 76.577 48 76 48C75.416 48 75 44.647 75 39.941Z"
          fill="#54736D"
          stroke="#54736D"
        />
        <path
          d="M76.75 147.311C74.483 146.719 74.158 138 76.403 138C77.374 138 77.913 139.54 78.153 143.001C78.344 145.751 78.5 147.949 78.5 147.885C78.5 147.821 77.713 147.563 76.75 147.311Z"
          fill="#003C00"
          stroke="#003C00"
        />
        <path
          d="M122 100C122 95.333 122.333 94 123.5 94C124.667 94 125 95.333 125 100C125 104.667 124.667 106 123.5 106C122.333 106 122 104.667 122 100Z"
          fill="#95AA9E"
          stroke="#95AA9E"
        />
        <path
          d="M175.429 48.025C175.429 45.426 177.549 44.692 179.48 46.623C181.388 48.531 180.594 50 177.655 50C176.104 50 175.429 49.401 175.429 48.025Z"
          fill="#CCF48B"
          stroke="#CCF48B"
        />
        <path
          d="M183 62.059C183 60.991 182.602 59.872 182.173 53C183.721 53 184 53.84 184 58.5C184 61.525 183.775 64 183.5 64C183.225 64 183 63.127 183 62.059Z"
          fill="#C4DB80"
          stroke="#C4DB80"
        />
        <path
          d="M88 92.617C88 90.622 91.681 89.954 94.529 91.431C97.664 93.057 96.674 94 91.833 94C89.236 94 88 93.554 88 92.617Z"
          fill="#002D31"
          stroke="#002D31"
        />
        <path
          d="M65.692 98.931C65.402 97.821 64.322 97 60.934 90.95C58.233 88.913 59.144 87 62.814 87C65.014 87 65.71 87.636 66.594 90.461C67.32 92.782 67.346 94.254 66.671 94.929C65.996 95.604 66.215 96.145 67.333 96.574C69.363 97.353 69.521 99.586 67.599 100.324C66.766 100.644 65.992 100.079 65.692 98.931Z"
          fill="#605956"
          stroke="#605956"
        />
        <path
          d="M144 125.33C144 121.459 144.423 119.775 145.5 119.362C145.176 114.444 155.676 117.514 150 119C147.347 119 147 119.34 147 121.941C147 123.559 147.45 125.16 148 125.5C149.996 126.734 149.04 129.759 146.5 130.245C144.083 130.707 144 130.543 144 125.33Z"
          fill="#605956"
          stroke="#605956"
        />
        <path
          d="M95.742 157.409C95.399 157.066 95.649 155.933 96.299 154.892C97.745 152.576 103 152.269 103 154.5C103 155.399 102.078 156 100.7 156C99.435 156 97.942 156.458 97.383 157.017C96.824 157.576 96.085 157.752 95.742 157.409Z"
          fill="#38613B"
          stroke="#38613B"
        />
        <path
          d="M65.5 131C64.447 129.296 65.985 128 69.059 128C70.906 128 72 128.518 72 129.393C72 131.694 66.734 132.996 65.5 131Z"
          fill="#33A92E"
          stroke="#33A92E"
        />
        <path
          d="M210 52C210 49.111 210.417 48 211.5 48C212.583 48 213 49.111 213 52C213 54.889 212.583 56 211.5 56C210.417 56 210 54.889 210 52Z"
          fill="#B1C89F"
          stroke="#B1C89F"
        />
        <path
          d="M82.875 184.5C82.806 183.675 82.694 182.457 82.625 181.794C82.556 181.131 80.475 180.02 78 179.326C75.525 178.632 72.694 177.584 71.709 176.998C69.359 175.599 68 176.538 68 179.559C68 182.493 67.288 182.572 64 180C61.442 177.999 58 177.333 58 178.839C56.333 184.65 50.917 176.105 51.5 175.362C50.447 174.958 50.024 173.402 52.684 170.138C53.995 171.647 54.413 171.608 58.016 169.638C60.166 168.462 62.503 166.424 63.208 165.108C63.913 163.792 66.18 161.649 68.245 160.345C70.943 158.642 72 157.274 76 154.929C74.886 154.981 74.53 156.127 74.618 159.381C74.683 161.792 75.052 164.275 78.971 163C80.561 167.97 83.947 175 84.752 175C85.205 175 85.677 176.35 85.803 178C85.932 179.69 85.54 181 84.907 181C84.207 181 84.02 181.944 84.411 183.5C84.773 184.942 84.607 186 84.019 186C83.459 186 82.944 185.325 82.875 184.5Z"
          fill="#654431"
          stroke="#654431"
        />
        <path
          d="M131.5 162C130.506 160.392 131.925 159 134.559 159C137.299 159 137.915 161.435 135.418 162.393C133.187 163.249 132.211 163.151 131.5 162Z"
          fill="#38613B"
          stroke="#38613B"
        />
        <path
          d="M131 41C131 37.642 132.233 37.297 136 39.598C138.37 41.046 138.383 41.101 136.25 40.656C134.539 40.299 134 40.645 134 42.094C134 43.143 133.325 44 132.5 44C131.5 44 131 43 131 41Z"
          fill="#5E7314"
          stroke="#5E7314"
        />
        <path
          d="M172 169.759C172 168.462 171.499 166.899 174.411 164.144C174.022 164.773 173.741 166.566 173.785 168.127C173.829 169.688 173.446 171.225 172.933 171.542C172.42 171.859 172 171.056 172 169.759Z"
          fill="#654431"
          stroke="#654431"
        />
        <path
          d="M141 65.066C141 64.479 141 63.662 146.767 64C146.445 65.701 141 66.708 141 65.066Z"
          fill="#B46C00"
          stroke="#B46C00"
        />
        <path
          d="M59 1.5C59 0.452 60.056 0 62.5 0C64.944 0 66 0.452 66 1.5C66 2.548 64.944 3 62.5 3C60.056 3 59 2.548 59 1.5Z"
          fill="#C8FFAA"
          stroke="#C8FFAA"
        />
        <path
          d="M213.931 193.417C213.032 192.333 213.133 191.886 217.578 185C219.939 185 219.173 194.21 216.783 194.561C215.851 194.698 214.567 194.183 213.931 193.417Z"
          fill="#38613B"
          stroke="#38613B"
        />
        <path
          d="M209.505 222.024C208.645 218.109 209.441 217.042 213.031 217.293C215.549 217.469 215.996 217.915 215.998 220.25C215.999 221.774 216.557 223.007 217.25 223.015C219.795 223.046 215.478 224.97 212.829 224.985C210.674 224.997 210.032 224.425 209.505 222.024Z"
          fill="#38613B"
          stroke="#38613B"
        />
        <path
          d="M145.25 106.268C142.913 106.057 141 105.461 141 104.943C141 104.425 140.264 104 139.364 104C137.988 104 137.831 103.247 138.377 99.265C139.247 92.915 141.687 90.53 146.407 91.416L150 92.091V99.545C150 103.645 149.887 106.921 149.75 106.825C149.613 106.729 147.587 106.479 145.25 106.268Z"
          fill="#002900"
          stroke="#002900"
        />
        <path
          d="M22 24.417C22 19.899 24.36 20.243 24.813 24.827C25.045 27.172 24.718 28 23.563 28C22.436 28 22 27 22 24.417Z"
          fill="#CBFFAC"
          stroke="#CBFFAC"
        />
        <path
          d="M78 1.563C78 0.436 79 0 81.583 0C86.101 0 85.757 2.36 81.173 2.813C78.828 3.045 78 2.718 78 1.563Z"
          fill="#9DC173"
          stroke="#9DC173"
        />
        <path
          d="M131.365 67.782C130.418 66.25 131.956 65.34 134.789 65.756C138.69 66.329 138.661 69.082 134.757 68.785C133.157 68.663 131.631 68.212 131.365 67.782Z"
          fill="#B54B00"
          stroke="#B54B00"
        />
        <path
          d="M159 9.035V0H163.5C169.129 0 172 2.516 172 7.45C172 9.681 172.618 11.261 173.75 11.92C175.21 12.77 174.981 12.945 172.372 12.97C170.652 12.987 168.685 13.675 168 14.5C167.315 15.325 165.881 16 164.812 16C163.743 16 161.998 16.466 160.934 17.035C159.088 18.023 159 17.658 159 9.035Z"
          fill="#E2EFA2"
          stroke="#E2EFA2"
        />
        <path
          d="M166.75 75.311C164.875 74.821 164.648 74.08 165.607 71.582C166.676 68.795 169 69.767 169 73C169 74.65 168.887 75.948 168.75 75.884C168.613 75.82 167.712 75.563 166.75 75.311Z"
          fill="#497044"
          stroke="#497044"
        />
        <path
          d="M111 148.5C111.685 147.675 113.764 147 115.622 147C117.958 147 119 147.463 119 148.5C119 149.617 117.82 150 114.378 150C110.383 150 109.924 149.797 111 148.5Z"
          fill="#38613B"
          stroke="#38613B"
        />
        <path
          d="M159.021 95.525C158.325 94.686 158.148 93.999 158.628 93.999C160.523 88.973 165.886 78.393 162.5 80C159.624 80 158.919 76.629 166 77.5C168.167 77.5 168.541 77.001 168.81 73.75C170.1 65.126 160.051 75.255 159.065 71.783L161.283 67.641C162.503 65.363 163.646 63.278 163.825 63.008C164.99 64.885 172.347 69.32 173.559 67C174.573 67 175 68.184 175 71C175 73.889 174.583 75 173.5 75C172.452 75 172 76.056 172 78.5C172 80.944 171.548 82 170.5 82C169.5 82 169 83 169 85C169 86.867 168.528 87.906 167.75 87.75C167.002 87.6 166.375 88.804 166.187 90.75C166.015 92.537 165.374 94 164.765 94C164.156 94 162.899 94.686 161.972 95.525C160.462 96.892 160.155 96.892 159.021 95.525Z"
          fill="#50745A"
          stroke="#50745A"
        />
        <path
          d="M169 123.5C169 122.5 170 122 172 122C174 122 175 122.5 175 123.5C175 124.5 174 125 172 125C170 125 169 124.5 169 123.5Z"
          fill="#000E00"
          stroke="#000E00"
        />
        <path
          d="M51.54 86.653C49.16 84.913 51.076 83.551 54.645 84.447C56.729 84.97 56.963 85.34 55.966 86.541C54.471 88.342 53.871 88.358 51.54 86.653Z"
          fill="#50745A"
          stroke="#50745A"
        />
        <path
          d="M104.25 127.863C102.744 126.341 102.581 122 104.031 122C105.396 122 106.238 124.337 105.829 126.99C105.565 128.706 105.254 128.878 104.25 127.863Z"
          fill="#948681"
          stroke="#948681"
        />
        <path
          d="M91.092 35.444C90.086 32.776 89.408 32.356 85.75 32.14C83.446 32.004 81.501 31.804 81.43 31.696C81.359 31.588 81.696 30.038 82.179 28.25C83.184 24.53 85.115 24.115 88 27C89.1 28.1 90.9 29 92 29C94.152 29 94.487 31.293 93.023 36L92.245 38.5L91.092 35.444Z"
          fill="#E2EFA2"
          stroke="#E2EFA2"
        />
        <path
          d="M87.185 96.25C87.403 95.097 88.623 94.393 90.758 94.187C93.468 93.925 94 94.212 94 95.937C94 97.637 93.37 98 90.427 98C87.564 98 86.919 97.652 87.185 96.25Z"
          fill="#95AA9E"
          stroke="#95AA9E"
        />
        <path
          d="M137.32 112C137.32 108.425 137.501 106.963 137.723 108.75C137.945 110.537 137.945 113.463 137.723 115.25C137.501 117.037 137.32 115.575 137.32 112Z"
          fill="#95AA9E"
          stroke="#95AA9E"
        />
        <path
          d="M201.25 46.338C199.445 45.61 199.661 41 201.5 41C202.5 41 203 42 203 44C203 45.65 202.887 46.964 202.75 46.921C202.613 46.878 201.938 46.615 201.25 46.338Z"
          fill="#467D2F"
          stroke="#467D2F"
        />
        <path
          d="M64.769 224.275C66.567 224.052 67.778 223.449 67.46 222.935C66.526 221.424 69.007 221.864 70.643 223.5C71.976 224.833 71.551 224.982 66.821 224.84C63.194 224.731 62.541 224.551 64.769 224.275Z"
          fill="#575338"
          stroke="#575338"
        />
        <path
          d="M191 17.7C191 16.985 191.529 15.871 192.176 15.224C190.98 11.738 193.79 2.985 190.409 1.58C190.217 0.269 191.362 0 197.124 0C203.694 0 204.014 0.105 203.03 1.944C202.458 3.013 201.542 4.165 200.995 4.503C200.448 4.841 200 5.937 200 6.937C200 7.937 199.325 9.315 198.5 10C197.675 10.685 197 12.104 197 13.154C197 14.204 196.325 15.321 195.5 15.638C194.675 15.955 194 16.841 194 17.607C194 18.373 193.325 19 192.5 19C191.675 19 191 18.415 191 17.7Z"
          fill="#B4C899"
          stroke="#B4C899"
        />
        <path
          d="M23.25 21.263C22.358 20.956 22 17.854 22 10.417V0H31.5C39.278 0 41 0.272 41 1.5C40 2.5 36.75 5.75 36.75 6.017C35.226 6.038 31 10.355 31 11.891C31 12.501 30.325 13 29.5 13C28.5 13 28 14 28 16C28 17.931 27.492 19 26.573 19C25.788 19 25.001 19.606 24.823 20.347C24.645 21.088 23.938 21.499 23.25 21.263Z"
          fill="#FFFFD3"
          stroke="#FFFFD3"
        />
        <path
          d="M21.701 76.036C21.984 74.956 22.504 74.109 22.857 74.154C25.393 74.48 28.012 73.829 27.5 73C27.16 72.45 27.557 72 28.382 72C31.009 72 31.23 73.991 28.826 75.995C27.547 77.061 25.305 77.949 23.844 77.967C21.689 77.994 21.284 77.629 21.701 76.036Z"
          fill="#385F44"
          stroke="#385F44"
        />
        <path
          d="M128 173.5C128 172.372 128.702 171.96 130.25 172.18C131.488 172.356 132.5 172.95 132.5 173.5C132.5 174.05 131.488 174.644 130.25 174.82C128.702 175.04 128 174.628 128 173.5Z"
          fill="#002900"
          stroke="#002900"
        />
        <path
          d="M206.667 77.333C205.255 75.921 206.006 63.889 207.706 60.7C208.644 58.94 209.319 57.162 209.206 56.75C211.768 52.218 216.794 64.166 214.5 66.362C212.729 67.042 212.438 72.118 214.191 71.75C214.696 72.458 214.696 76.542 212 76.5C210.712 78.051 207.835 78.501 206.667 77.333Z"
          fill="#6FA37F"
          stroke="#6FA37F"
        />
        <path
          d="M92.924 64.09C92.057 63.131 91.058 61.594 90.705 60.674C90.352 59.754 89.344 59 88.465 59C86.187 59 86.912 53.628 89.25 53.185C94.189 56.829 94.189 54.788 92.354 50.7C90.049 49.339 90.835 45.543 93.958 42.953C97.385 40.111 97.623 39.176 95.347 37.512C99.956 30.28 96.125 30.28 93.723 29.737C90.351 28.146 89.378 21.404 92.294 19.843C94.939 18.427 97 19.531 97 22.362C97 23.695 97.675 25.045 98.5 25.362C99.578 25.776 100 27.461 100 31.352C100 35.926 100.311 36.848 102 37.29C103.2 37.604 104 38.654 104 39.916C104 41.073 103.1 42.79 102 43.732C100.724 44.824 100 46.682 100 48.862C100 50.953 99.325 52.772 98.263 53.549C96.618 54.752 96.623 54.926 98.345 56.829C101.446 60.255 99.664 65.9 95.5 65.846C94.95 65.839 93.791 65.049 92.924 64.09ZM97 48C97 46.889 96.333 46 95.5 46C94.667 46 94 46.889 94 48C94 49.111 94.667 50 95.5 50C96.333 50 97 49.111 97 48Z"
          fill="#998100"
          stroke="#998100"
        />
        <path
          d="M97.604 175.41C96.924 173.638 97.622 172 99.059 172C99.577 172 100 173.125 100 174.5C100 177.297 98.541 177.852 97.604 175.41Z"
          fill="#E8A772"
          stroke="#E8A772"
        />
        <path
          d="M94 48C94 46.889 94.667 46 95.5 46C96.333 46 97 46.889 97 48C97 49.111 96.333 50 95.5 50C94.667 50 94 49.111 94 48Z"
          fill="#FFD682"
          stroke="#FFD682"
        />
        <path
          d="M87.336 114.433C87.005 113.571 87.297 111.813 87.985 110.528C88.592 105.512 89.195 105.867 90.099 108.25C90.154 109.488 90.309 111.738 90.445 113.25C90.715 116.267 88.381 117.156 87.336 114.433Z"
          fill="#605956"
          stroke="#605956"
        />
        <path
          d="M56.669 83.579C55.365 80.18 55.902 75 57.559 75C58.478 71.675 66.037 62.337 69.317 60.895C70.158 57.681 72.033 59.059 74.051 64.374C76.103 69.781 75.786 71.641 72.658 72.551C67.4 74.08 64.97 75.656 63.903 78.233C63.217 79.89 61.991 81 60.846 81C59.795 81 58.576 81.972 58.136 83.16C57.425 85.083 57.264 85.13 56.669 83.579Z"
          fill="#679166"
          stroke="#679166"
        />
        <path
          d="M91.026 100.016C90.223 99.519 90.514 99.098 97.324 94.75C98.928 97.474 93.821 101.744 91.026 100.016Z"
          fill="#605956"
          stroke="#605956"
        />
        <path
          d="M39 216.441C39 214.323 39.405 213.132 40 213.5C40.55 213.84 41 215.441 41 217.059C41 218.677 40.55 220 40 220C39.45 220 39 218.398 39 216.441Z"
          fill="#575338"
          stroke="#575338"
        />
        <path
          d="M180.193 161.191C178.374 161.012 176.638 160.22 174 157C176.264 155.537 177.715 155.803 178.231 157.776C178.486 158.753 179.715 159.628 180.961 159.722C183.152 159.887 184.771 160.729 183.917 161.259C183.688 161.401 182.012 161.37 180.193 161.191Z"
          fill="#654431"
          stroke="#654431"
        />
        <path
          d="M199.75 17.274C196.663 14.037 196.285 11.838 198.5 10C199.325 9.315 200 8.117 200 7.337C200 5.429 204.087 0 205.523 0C207.225 0 206.502 10.784 204.663 12.833C203.84 13.75 203.018 15.773 202.834 17.329L202.5 20.158L199.75 17.274Z"
          fill="#708E65"
          stroke="#708E65"
        />
        <path
          d="M157 92.883C157 92.259 156.118 91.998 155 92.29C153.7 92.63 153 92.32 153 91.406C153 90.632 153.675 90 154.5 90C155.325 90 156 89.325 156 88.5C156 87.675 155.663 87.053 155.25 87.118C153.329 87.421 153.016 86.838 154.057 84.893C154.882 83.352 155.483 83.083 156.293 83.893C158.067 85.667 159 85.186 159 82.5C159 80.389 159.467 80 162 80C163.65 80 165 80.45 165 81C165 81.55 164.55 82 164 82C163.45 82 163 83.102 163 84.45C163 85.798 162.282 87.303 161.404 87.794C160.526 88.285 159.739 89.882 159.654 91.343C159.509 93.837 157 95.293 157 92.883Z"
          fill="#38613B"
          stroke="#38613B"
        />
        <path
          d="M210 26.5C210 25.675 209.288 25 208.417 25C206.074 25 207.299 22.552 209.828 22.18C211.655 21.911 212 22.348 212 24.93C212 26.618 211.55 28 211 28C210.45 28 210 27.325 210 26.5Z"
          fill="#002900"
          stroke="#002900"
        />
        <path
          d="M209.184 6.25C209.372 4.613 210.107 3.5 211 3.5C211.893 3.5 212.628 4.613 212.816 6.25C213.074 8.489 212.737 9 211 9C209.263 9 208.926 8.489 209.184 6.25Z"
          fill="#FFFFEA"
          stroke="#FFFFEA"
        />
        <path
          d="M191.38 35.548C191.074 34.749 191.127 33.602 191.5 32.999C192.477 31.418 195.037 33.742 194.334 35.573C193.627 37.416 192.092 37.403 191.38 35.548Z"
          fill="#6FA37F"
          stroke="#6FA37F"
        />
        <path
          d="M140.5 18.284C139.4 18.021 138.072 17.4 137.55 16.903C127.96 15.237 127.96 13.902 126.375 13.649C125.105 11.305 124.356 10.898 122.165 11.362C114.448 12.996 112.993 13.153 112.909 12.363C112.225 5.904 112.558 3.667 114.274 3.218C115.326 2.943 115.888 2.152 115.588 1.369C115.166 0.27 116.929 0 124.531 0C132.281 0 134 0.272 134 1.5C134 3.449 136.89 3.449 137.638 1.5C138.038 0.458 139.631 0.009 142.857 0.03C146.498 0.054 147.122 0.281 145.75 1.08C143.486 2.398 143.278 9 145.5 9C146.611 9 147 10.167 147 13.5C147 15.975 146.587 18 146.082 18C145.577 18 144.564 18.171 143.832 18.381C143.1 18.591 141.6 18.547 140.5 18.284Z"
          fill="#CCF48B"
          stroke="#CCF48B"
        />
        <path
          d="M153.389 39.57C152.683 37.731 150.341 37.476 148.5 34.362C150.688 33.523 150.688 19 148.5 19C147.367 19 147 17.778 147 14C147 10.222 146.633 9 145.5 9C144.455 9 144 7.948 144 5.535C144 1.194 146.005 0 153.29 0H158.712L159.295 15.25C160.035 34.609 159.348 40.38 156.246 40.82C154.894 41.012 153.75 40.512 153.389 39.57Z"
          fill="#9EC587"
          stroke="#9EC587"
        />
        <path
          d="M184.652 29.318C184.294 28.96 184 27.166 184 25.333C184 23.037 183.533 22 182.5 22C180.295 22 180.661 19.962 189.351 16C191.341 16 192.081 19.704 190.719 22.851C189.281 26.174 185.518 30.184 184.652 29.318Z"
          fill="#50745A"
          stroke="#50745A"
        />
        <path
          d="M184.263 46.758C184.144 37 184.383 29.125 184.793 29.258C186.066 29.671 189.589 25.66 194 17.607C194 15.349 197.116 14.795 199.201 16.682C201.304 18.585 200.963 22.258 198.422 25.079C197.64 25.947 197 28.31 197 30.329C197 34.109 195.504 35.104 192.338 36.505C193.277 37.192 194 39.087 194 40.86C192.998 47.322 192.998 51.388 190.217 49.75C188.689 51.537 186.913 53 186.27 53C185.548 53 184.981 55.204 184.79 58.75C184.619 61.912 184.382 56.516 184.263 46.758Z"
          fill="#6C8B62"
          stroke="#6C8B62"
        />
        <path
          d="M86 99.033C86 98.486 84.875 97.756 83.5 97.411C78.505 96.157 82.225 87.059 87.75 87.017C89.778 84.63 101.216 80.973 100.5 81.863C101.005 80.549 107.097 80.444 154.842 84C152.514 87.149 150.452 87.858 149.751 85.75C149.439 84.812 143.664 84.419 126.593 84.177C105.165 83.873 103.822 83.961 103.367 85.703C103.007 87.079 101.85 87.592 98.84 87.711C93.872 87.907 93.071 88.586 93.433 91.033C92.216 89.816 88.004 90.847 87.986 92.367C87.978 92.99 87.702 94.512 87.37 95.75C86.834 97.749 87.133 98 90.05 98C94.013 98 93.623 98.685 89.22 99.461C87.371 99.787 86 99.605 86 99.033Z"
          fill="#356E43"
          stroke="#356E43"
        />
        <path
          d="M187.343 7.5C187.347 3.1 187.522 1.424 187.733 3.776C187.944 6.128 187.942 9.728 187.727 11.776C187.512 13.824 187.339 11.9 187.343 7.5Z"
          fill="#B4C899"
          stroke="#B4C899"
        />
        <path
          d="M213.184 69.321C213.588 65.91 215.5 65.219 215.762 68.39C215.878 69.786 215.311 71.05 214.415 71.394C213.218 71.853 212.94 71.385 213.184 69.321Z"
          fill="#385F44"
          stroke="#385F44"
        />
        <path
          d="M181.166 110.861C181.35 109.562 181.95 108.613 182.5 108.75C183.976 109.119 183.716 112.261 182.166 112.778C181.251 113.083 180.937 112.48 181.166 110.861Z"
          fill="#606751"
          stroke="#606751"
        />
        <path
          d="M196.761 50.47C197.369 47.288 200.551 45.382 202.523 47.019C203.354 47.709 205.147 47.907 207.357 51.5C206.532 50.675 204.732 50 203.357 50C201.982 50 200.182 50.675 199.357 51.5C197.151 53.706 196.214 53.334 196.761 50.47Z"
          fill="#4D6546"
          stroke="#4D6546"
        />
        <path
          d="M100 193.107C100 189.907 99.531 188.034 98.642 187.693C97.895 187.406 96.997 185.382 96.647 183.195C96.297 181.008 95.334 178.959 94.506 178.641C92.819 175.559 91.507 169.667 90.515 169.069C90.161 167.457 89.226 165.602 88.436 164.947C86.853 163.634 86.495 156.346 87.904 154.122C91.959 159.259 96.423 156.318 95.2 159.2C93.519 160.881 93.703 164.673 95.5 165.362C96.01 170.913 103.343 172.037 99.25 172.031C95.94 173.362 96.529 175.662 100.75 177.885C102.44 178.775 103 179.957 103 182.629C103 185.384 103.466 186.309 105.065 186.727C106.876 187.201 107.049 187.775 106.474 191.384C105.824 195.458 103.84 198 101.309 198C100.409 198 100 196.472 100 193.107Z"
          fill="#8A5930"
          stroke="#8A5930"
        />
        <path
          d="M78 67.535C78 66.729 78.923 65.576 80.052 64.972C81.305 64.302 81.986 63.083 81.802 61.843C81.544 60.109 82.13 59.764 85.811 59.484C89.047 59.237 90.275 59.553 90.735 60.751C91.97 63.969 94.952 66.05 97.437 65.426C99.577 64.889 99.816 64.333 99.595 60.411C99.386 56.715 99.642 56 101.173 56C103.871 56 103.72 63.28 97 67.941C97 69.332 91.71 69.31 90.313 67.913C89.53 67.13 89.038 67.13 88.554 67.913C87.481 69.65 78 69.31 78 67.535Z"
          fill="#E29959"
          stroke="#E29959"
        />
        <path
          d="M134 1.573C134 0.645 134.855 0 136.083 0C138.52 0 138.176 2.336 135.667 2.823C134.68 3.014 134 2.504 134 1.573Z"
          fill="#9DC173"
          stroke="#9DC173"
        />
        <path
          d="M104.75 53.311C103.42 52.964 103 51.805 103 48.486C103 43.504 104.037 42.382 106.959 44.207C109.33 45.688 109.679 49.525 107.517 50.355C106.673 50.679 106.288 51.587 106.624 52.462C106.949 53.308 107.053 53.948 106.857 53.884C106.661 53.82 105.713 53.563 104.75 53.311Z"
          fill="#998100"
          stroke="#998100"
        />
        <path
          d="M114.75 106.261C110.559 105.998 109 105.507 106 99.365C106 94.42 109.671 91 114.98 91C120.607 91 122 92.898 122 100.571C122 104.107 121.662 106.915 121.25 106.811C120.838 106.707 117.912 106.459 114.75 106.261Z"
          fill="#3A3329"
          stroke="#3A3329"
        />
        <path
          d="M103 93.174V88C109.096 87.177 114.659 91.943 109.539 92.357C108.967 92.997 107.262 94.606 105.75 95.934L103 98.349V93.174Z"
          fill="#D5D9D4"
          stroke="#D5D9D4"
        />
        <path
          d="M81.16 18.766C81.037 15.89 81.683 14.282 83.971 11.766L86.941 8.5L86.982 11C87.004 12.375 87.246 15.3 87.52 17.5C87.794 19.7 87.752 20.938 87.426 20.25C87.1 19.562 86.196 19 85.417 19C84.638 19 84 18.325 84 17.5C84 14.596 82.121 16.04 81.723 19.25C81.324 22.463 81.318 22.458 81.16 18.766Z"
          fill="#DDF3B6"
          stroke="#DDF3B6"
        />
        <path
          d="M150.22 103.497C150.574 87.671 152.302 86.446 153.037 101.5C153.332 107.55 153.943 113.287 149.94 116L150.22 103.497Z"
          fill="#FFFFF8"
          stroke="#FFFFF8"
        />
        <path
          d="M128 73.555C128 71.729 135.268 71.15 143 72.361C152.61 73.865 150.976 75 139.2 75C130.1 75 128 74.729 128 73.555Z"
          fill="#C38242"
          stroke="#C38242"
        />
        <path
          d="M188 7.917C188 1.895 188.319 -0.0599992 189.25 0.250001C191.783 9.738 193.737 9.738 191.558 12.064C193.466 14.173 192.715 16 189.941 16C188.18 16 188 15.252 188 7.917Z"
          fill="#FFFFD3"
          stroke="#FFFFD3"
        />
        <path
          d="M124.638 14.5C124.29 13.593 122.764 12.994 120.781 12.985C118.294 12.973 117.863 12.735 119 12C122.325 9.85101 127 11.858 127 15.434C127 16.64 125.184 15.922 124.638 14.5Z"
          fill="#E2EFA2"
          stroke="#E2EFA2"
        />
        <path
          d="M114.807 87.253C121.576 87.08 132.376 87.08 138.807 87.254C145.238 87.428 139.7 87.57 126.5 87.569C113.3 87.568 108.038 87.426 114.807 87.253Z"
          fill="#95AA9E"
          stroke="#95AA9E"
        />
        <path
          d="M117.965 70.542C118.997 69.298 118.934 68.912 117.613 68.405C118.688 69.124 127.206 69.124 122.352 71.876C117.404 72.038 116.861 71.872 117.965 70.542Z"
          fill="#FFD37C"
          stroke="#FFD37C"
        />
        <path
          d="M172.614 26.599C171.726 24.728 171 22.703 171 22.099C170.333 18.739 168.167 23.865 166.987 20.985C165.88 19.708 163.967 18.552 162.737 18.415C161.507 18.278 160.275 18.122 160 18.068C158.719 17.815 162.747 16.029 170.362 14.5C169.843 15.851 171.52 16.549 174.25 16.118C174.663 16.053 175 19.15 175 23C175 26.85 174.826 30 174.614 30C174.402 30 173.502 28.47 172.614 26.599Z"
          fill="#FFFFC4"
          stroke="#FFFFC4"
        />
        <path
          d="M143.614 79.816C144.328 78.661 156.757 78.797 157.48 79.968C157.849 80.564 155.204 80.878 150.594 80.784C146.477 80.7 143.337 80.265 143.614 79.816Z"
          fill="#142620"
          stroke="#142620"
        />
        <path
          d="M87.815 14.25C87.411 5.115 87.75 3 89.617 3C89.059 -0.951004 99.728 1.216 95.559 3C93.255 3 92.668 4.976 94.402 6.892C96.371 9.068 96.429 10 94.595 10C93.526 10 93.323 10.987 93.745 14.133C94.22 17.673 93.954 18.531 91.899 20.111C90.579 21.126 89.198 21.966 88.829 21.978C88.46 21.99 88.004 18.513 87.815 14.25Z"
          fill="#8CA775"
          stroke="#8CA775"
        />
        <path
          d="M86.971 12.25L86.941 8.5C86.941 8.5 83.971 11.766 79.5 13C78.367 13 78 11.778 78 8C78 3.1 78.06 3 81.031 3C82.803 3 84.302 2.377 84.638 1.5C85.413 -0.519999 91 -0.519999 91 1.5C91 2.325 90.325 3 89.5 3C87.853 3 87.634 4.174 87.963 11.25C88.085 13.863 87.918 16 87.592 16C87.266 16 86.987 14.312 86.971 12.25Z"
          fill="#CEF58F"
          stroke="#CEF58F"
        />
        <path
          d="M181 12.65C181 7.406 180.683 6 179.5 6C178.5 6 178 5 178 3C178 0.111 178.167 0 182.5 0H187V5.509C187 10.043 186.469 11.751 184 15.159L181 19.3V12.65Z"
          fill="#679166"
          stroke="#679166"
        />
        <path
          d="M200.667 74.333C199.448 73.114 199.978 69.946 201.5 69.362C206.525 60.482 202.223 60.482 205.579 58.541C206.177 56.16 207.91 55.244 209.261 56.595C209.588 56.922 208.99 58.609 207.932 60.345C206.624 62.49 206.007 65.341 206.004 69.25C206.001 74.606 205.84 75 203.667 75C202.384 75 201.034 74.7 200.667 74.333Z"
          fill="#91B584"
          stroke="#91B584"
        />
      </g>
      <defs>
        <clipPath id="clip0_2012_33">
          <rect width="225" height="225" fill="white" />
        </clipPath>
      </defs>
    </svg>